<svg width="177" height="177" viewBox="0 0 177 177" fill="none" xmlns="http://www.w3.org/2000/svg">
<g filter="url(#filter0_i_1153_304)">
<path d="M0.743106 140.629L10.1123 131.26C12.6461 128.726 14.7895 126.98 16.5425 126.023C18.3103 125.051 19.9086 124.601 21.3376 124.675C22.7813 124.734 24.1587 125.183 25.4697 126.023C26.7808 126.833 28.556 128.358 30.7951 130.597L33.9108 133.713C36.1942 135.996 37.6231 137.896 38.1977 139.414C38.7722 140.931 38.7059 142.603 37.9988 144.43C37.3064 146.242 35.9438 148.164 33.9108 150.197L31.4139 152.694L45.8212 167.101L36.5183 176.404L0.743106 140.629ZM16.1669 137.447L25.2709 146.551C25.5508 146.301 25.7865 146.08 25.978 145.888C26.8324 145.034 27.2154 144.238 27.127 143.502C27.0386 142.736 26.3315 141.69 25.0057 140.364L22.0668 137.425C20.8441 136.202 19.8571 135.598 19.1058 135.613C18.3545 135.628 17.3748 136.239 16.1669 137.447ZM60.1401 114.731L67.3216 121.913C69.9585 124.55 71.7631 126.619 72.7354 128.122C73.693 129.61 74.2748 131.326 74.4811 133.271C74.6726 135.2 74.3411 137.108 73.4867 138.994C72.6323 140.85 71.3212 142.662 69.5534 144.43C67.5794 146.404 65.6938 147.862 63.8966 148.805C62.0846 149.733 60.361 150.145 58.7259 150.042C57.0907 149.91 55.4923 149.387 53.9308 148.473C52.3545 147.545 50.3216 145.837 47.832 143.347L40.319 135.834C37.5937 133.109 35.7596 130.685 34.8168 128.564C33.874 126.443 33.7046 124.152 34.3086 121.692C34.9126 119.232 36.4078 116.808 38.7943 114.422C40.7978 112.418 42.816 111.004 44.8489 110.179C46.8818 109.325 48.7674 108.986 50.5057 109.163C52.244 109.34 53.7614 109.796 55.0577 110.533C56.3688 111.255 58.0629 112.654 60.1401 114.731ZM49.0031 121.449C47.5005 119.946 46.4767 119.084 45.9316 118.863C45.3719 118.628 44.8268 118.775 44.2965 119.305C43.7661 119.836 43.6115 120.388 43.8324 120.963C44.0387 121.522 44.8931 122.554 46.3957 124.056L59.6318 137.292C61.0166 138.677 62.011 139.495 62.6149 139.745C63.2042 139.981 63.7566 139.841 64.2722 139.325C64.8026 138.795 64.9572 138.257 64.7363 137.712C64.53 137.152 63.7935 136.239 62.5266 134.972L49.0031 121.449ZM80.4031 92.612L72.4923 100.523L70.9014 98.9318C69.5461 97.5765 68.6106 96.8031 68.095 96.6116C67.5794 96.3906 67.0123 96.5895 66.3935 97.2082C65.8927 97.7091 65.6864 98.2542 65.7748 98.8434C65.8485 99.4179 66.2168 100.037 66.8797 100.7C67.7783 101.598 68.5001 102.202 69.0452 102.512C69.5903 102.791 70.4226 102.872 71.5422 102.755C72.6765 102.622 74.6947 102.062 77.5968 101.075C81.4564 99.7494 84.3511 99.2412 86.2809 99.5505C88.2107 99.8599 90.2437 101.083 92.3797 103.219C94.7662 105.605 96.2614 107.719 96.8654 109.56C97.4547 111.387 97.3516 113.361 96.5561 115.483C95.7606 117.574 94.339 119.644 92.2913 121.692C90.0227 123.96 87.7246 125.551 85.397 126.465C83.0842 127.363 81.0218 127.511 79.2099 126.907C77.3979 126.303 75.2692 124.778 72.8238 122.333L71.4096 120.918L79.3203 113.008L81.1765 114.864C82.7528 116.44 83.8723 117.368 84.5353 117.648C85.2129 117.913 85.8464 117.751 86.4356 117.162C87.0691 116.528 87.3563 115.932 87.2974 115.372C87.2237 114.798 86.6787 114.002 85.6622 112.986C84.2627 111.586 83.2242 110.872 82.5465 110.842C81.8541 110.827 79.0773 111.512 74.2159 112.897C70.1206 114.046 67.189 114.311 65.4213 113.693C63.6388 113.059 61.9226 111.918 60.2727 110.268C57.9304 107.925 56.5162 105.892 56.03 104.169C55.5291 102.431 55.7133 100.523 56.5824 98.4457C57.4663 96.3538 58.8879 94.3282 60.8472 92.369C62.7917 90.4244 64.6921 89.0249 66.5482 88.1705C68.4044 87.2866 70.0985 86.8889 71.6306 86.9773C73.1774 87.0509 74.3706 87.3603 75.2103 87.9054C76.0647 88.4357 77.2285 89.4374 78.7016 90.9106L80.4031 92.612ZM79.6076 66.8468L84.2259 71.4651L86.6345 69.0565L91.2749 73.6969L88.8663 76.1055L104.555 91.7944C106.485 93.7243 107.656 94.7039 108.069 94.7334C108.496 94.7481 109.439 94.0262 110.897 92.5678L115.626 97.2966L112.024 100.898C109.991 102.931 108.459 104.301 107.428 105.008C106.382 105.701 105.225 106.077 103.959 106.135C102.677 106.18 101.565 105.892 100.622 105.274C99.6644 104.64 97.7272 102.865 94.8104 99.9483L79.917 85.0548L77.9945 86.9773L73.3541 82.3369L75.2766 80.4144L70.6583 75.7961L79.6076 66.8468ZM96.9759 57.3009L99.5171 60.1514C99.0899 58.4278 99.0751 56.8368 99.4729 55.3784C99.8706 53.8906 100.681 52.5353 101.904 51.3126C103.436 49.7805 105.049 48.8893 106.743 48.6388C108.437 48.3884 109.976 48.6757 111.361 49.5006C112.731 50.3108 114.698 51.9976 117.261 54.5608L137.811 75.1111L128.884 84.0384L108.577 63.7311C106.559 61.7129 105.262 60.5492 104.688 60.2398C104.113 59.9304 103.524 60.0778 102.92 60.6817C102.287 61.3152 102.147 61.9707 102.5 62.6484C102.839 63.3113 104.113 64.7476 106.323 66.9573L126.144 86.7784L117.217 95.7056L87.894 66.3828L96.9759 57.3009ZM146.982 37.6566L135.425 49.2134L141.767 55.5552C143.093 56.881 144.043 57.6397 144.617 57.8312C145.192 58.0227 145.752 57.8459 146.297 57.3009C146.974 56.6232 147.173 55.9235 146.893 55.2017C146.613 54.4504 145.744 53.3455 144.286 51.8871L140.419 48.0201L148.882 39.5569L151.047 41.7224C152.859 43.5344 154.134 45.0444 154.87 46.2523C155.622 47.4456 156.13 49.0145 156.395 50.959C156.66 52.9036 156.424 54.8039 155.688 56.6601C154.951 58.4868 153.611 60.3724 151.666 62.3169C149.781 64.2025 147.843 65.5947 145.855 66.4933C143.866 67.3919 141.995 67.7749 140.242 67.6423C138.489 67.4803 136.891 66.9868 135.447 66.1618C133.989 65.3221 132.169 63.8122 129.989 61.6319L121.437 53.0803C118.874 50.5171 117.202 48.1527 116.421 45.9872C115.626 43.8069 115.626 41.5383 116.421 39.1813C117.202 36.8095 118.616 34.5998 120.664 32.5522C123.168 30.0478 125.709 28.4642 128.287 27.8013C130.865 27.1089 133.267 27.2268 135.491 28.1548C137.716 29.0534 140.249 30.9243 143.093 33.7675L146.982 37.6566ZM133.259 41.8329L131.116 39.6895C129.599 38.1722 128.538 37.2736 127.934 36.9937C127.33 36.7138 126.778 36.8243 126.277 37.3251C125.658 37.9438 125.466 38.5184 125.702 39.0487C125.923 39.5643 126.859 40.6471 128.508 42.297L130.652 44.4404L133.259 41.8329ZM140.242 6.21242L144.86 10.8307L147.269 8.42213L151.909 13.0625L149.501 15.4711L165.19 31.16C167.119 33.0898 168.291 34.0695 168.703 34.0989C169.13 34.1137 170.073 33.3918 171.531 31.9334L176.26 36.6622L172.658 40.264C170.626 42.297 169.093 43.667 168.062 44.3741C167.016 45.0665 165.86 45.4421 164.593 45.501C163.311 45.5452 162.199 45.258 161.256 44.6393C160.299 44.0058 158.362 42.2307 155.445 39.3139L140.551 24.4204L138.629 26.3429L133.989 21.7025L135.911 19.78L131.293 15.1617L140.242 6.21242Z" fill="#D11532"/>
</g>
<defs>
<filter id="filter0_i_1153_304" x="0.743164" y="0.886963" width="176.048" height="180.048" filterUnits="userSpaceOnUse" color-interpolation-filters="sRGB">
<feFlood flood-opacity="0" result="BackgroundImageFix"/>
<feBlend mode="normal" in="SourceGraphic" in2="BackgroundImageFix" result="shape"/>
<feColorMatrix in="SourceAlpha" type="matrix" values="0 0 0 0 0 0 0 0 0 0 0 0 0 0 0 0 0 0 127 0" result="hardAlpha"/>
<feOffset dy="4"/>
<feGaussianBlur stdDeviation="2"/>
<feComposite in2="hardAlpha" operator="arithmetic" k2="-1" k3="1"/>
<feColorMatrix type="matrix" values="0 0 0 0 0 0 0 0 0 0 0 0 0 0 0 0 0 0 0.25 0"/>
<feBlend mode="normal" in2="shape" result="effect1_innerShadow_1153_304"/>
</filter>
</defs>
</svg>
