<svg width="199" height="52" viewBox="0 0 199 52" fill="none" xmlns="http://www.w3.org/2000/svg">
<g filter="url(#filter0_i_1181_5)">
<path d="M0.929688 0.336182H14.1797C17.763 0.336182 20.513 0.617432 22.4297 1.17993C24.3672 1.74243 25.8151 2.55493 26.7734 3.61743C27.7526 4.67993 28.4089 5.9716 28.7422 7.49243C29.0964 8.99243 29.2734 11.3258 29.2734 14.4924V18.8987C29.2734 22.1278 28.9401 24.482 28.2734 25.9612C27.6068 27.4403 26.3776 28.5758 24.5859 29.3674C22.8151 30.1591 20.4922 30.5549 17.6172 30.5549H14.0859V50.9299H0.929688V0.336182ZM14.0859 8.99243V21.8674C14.4609 21.8883 14.7839 21.8987 15.0547 21.8987C16.263 21.8987 17.0964 21.607 17.5547 21.0237C18.0339 20.4195 18.2734 19.1799 18.2734 17.3049V13.1487C18.2734 11.4195 18.0026 10.2945 17.4609 9.77368C16.9193 9.25285 15.7943 8.99243 14.0859 8.99243ZM61.2422 24.0237V34.1799C61.2422 37.9091 61.0547 40.6487 60.6797 42.3987C60.3047 44.1278 59.5026 45.7528 58.2734 47.2737C57.0443 48.7737 55.4609 49.8883 53.5234 50.6174C51.6068 51.3258 49.3984 51.6799 46.8984 51.6799C44.1068 51.6799 41.7422 51.3778 39.8047 50.7737C37.8672 50.1487 36.3568 49.2216 35.2734 47.9924C34.2109 46.7424 33.4505 45.2424 32.9922 43.4924C32.5339 41.7216 32.3047 39.0758 32.3047 35.5549V24.9299C32.3047 21.0758 32.7214 18.0653 33.5547 15.8987C34.388 13.732 35.888 11.9924 38.0547 10.6799C40.2214 9.36743 42.9922 8.71118 46.3672 8.71118C49.2005 8.71118 51.6276 9.13826 53.6484 9.99243C55.6901 10.8258 57.263 11.9195 58.3672 13.2737C59.4714 14.6278 60.2214 16.0237 60.6172 17.4612C61.0339 18.8987 61.2422 21.0862 61.2422 24.0237ZM48.6172 20.8987C48.6172 18.7737 48.5026 17.4403 48.2734 16.8987C48.0443 16.3362 47.5547 16.0549 46.8047 16.0549C46.0547 16.0549 45.5547 16.3362 45.3047 16.8987C45.0547 17.4403 44.9297 18.7737 44.9297 20.8987V39.6174C44.9297 41.5758 45.0547 42.857 45.3047 43.4612C45.5547 44.0445 46.0443 44.3362 46.7734 44.3362C47.5234 44.3362 48.013 44.0653 48.2422 43.5237C48.4922 42.982 48.6172 41.8153 48.6172 40.0237V20.8987ZM91.2109 22.7112H80.0234V20.4612C80.0234 18.5445 79.9089 17.3362 79.6797 16.8362C79.4714 16.3153 78.9297 16.0549 78.0547 16.0549C77.3464 16.0549 76.8151 16.2945 76.4609 16.7737C76.1068 17.232 75.9297 17.9299 75.9297 18.8674C75.9297 20.1383 76.013 21.0758 76.1797 21.6799C76.3672 22.2633 76.8984 22.9091 77.7734 23.6174C78.6693 24.3258 80.4922 25.357 83.2422 26.7112C86.9089 28.5028 89.3151 30.1903 90.4609 31.7737C91.6068 33.357 92.1797 35.6591 92.1797 38.6799C92.1797 42.0549 91.7422 44.607 90.8672 46.3362C89.9922 48.0445 88.5234 49.3674 86.4609 50.3049C84.4193 51.2216 81.9505 51.6799 79.0547 51.6799C75.8464 51.6799 73.0964 51.1799 70.8047 50.1799C68.5339 49.1799 66.9714 47.8258 66.1172 46.1174C65.263 44.4091 64.8359 41.8258 64.8359 38.3674V36.3674H76.0234V38.9924C76.0234 41.2216 76.1589 42.6695 76.4297 43.3362C76.7214 44.0028 77.2839 44.3362 78.1172 44.3362C79.013 44.3362 79.638 44.1174 79.9922 43.6799C80.3464 43.2216 80.5234 42.2737 80.5234 40.8362C80.5234 38.857 80.2943 37.6174 79.8359 37.1174C79.3568 36.6174 76.9089 35.1383 72.4922 32.6799C68.7839 30.5966 66.5234 28.7112 65.7109 27.0237C64.8984 25.3153 64.4922 23.2945 64.4922 20.9612C64.4922 17.6487 64.9297 15.2112 65.8047 13.6487C66.6797 12.0653 68.1589 10.8466 70.2422 9.99243C72.3464 9.13826 74.7839 8.71118 77.5547 8.71118C80.3047 8.71118 82.638 9.06535 84.5547 9.77368C86.4922 10.4612 87.9714 11.3778 88.9922 12.5237C90.0339 13.6695 90.6589 14.732 90.8672 15.7112C91.0964 16.6903 91.2109 18.2216 91.2109 20.3049V22.7112ZM108.867 3.92993V10.4612H112.273V17.0237H108.867V39.2112C108.867 41.9403 109.003 43.4612 109.273 43.7737C109.565 44.0862 110.742 44.2424 112.805 44.2424V50.9299H107.711C104.836 50.9299 102.784 50.8153 101.555 50.5862C100.326 50.3362 99.2422 49.7841 98.3047 48.9299C97.3672 48.0549 96.7839 47.0653 96.5547 45.9612C96.3255 44.8362 96.2109 42.2112 96.2109 38.0862V17.0237H93.4922V10.4612H96.2109V3.92993H108.867ZM127.898 9.46118L127.68 13.2737C128.596 11.7528 129.711 10.6174 131.023 9.86743C132.357 9.0966 133.888 8.71118 135.617 8.71118C137.784 8.71118 139.555 9.2216 140.93 10.2424C142.305 11.2633 143.19 12.5549 143.586 14.1174C143.982 15.6591 144.18 18.2424 144.18 21.8674V50.9299H131.555V22.2112C131.555 19.357 131.461 17.6174 131.273 16.9924C131.086 16.3674 130.565 16.0549 129.711 16.0549C128.815 16.0549 128.253 16.4195 128.023 17.1487C127.794 17.857 127.68 19.7737 127.68 22.8987V50.9299H115.055V9.46118H127.898ZM177.148 30.9299H160.805V39.8987C160.805 41.7737 160.94 42.982 161.211 43.5237C161.482 44.0653 162.003 44.3362 162.773 44.3362C163.732 44.3362 164.367 43.982 164.68 43.2737C165.013 42.5445 165.18 41.1487 165.18 39.0862V33.6174H177.148V36.6799C177.148 39.2424 176.982 41.2112 176.648 42.5862C176.336 43.9612 175.586 45.4299 174.398 46.9924C173.211 48.5549 171.701 49.732 169.867 50.5237C168.055 51.2945 165.773 51.6799 163.023 51.6799C160.357 51.6799 158.003 51.2945 155.961 50.5237C153.919 49.7528 152.326 48.7008 151.18 47.3674C150.055 46.0133 149.273 44.5341 148.836 42.9299C148.398 41.3049 148.18 38.9508 148.18 35.8674V23.7737C148.18 20.1487 148.669 17.2945 149.648 15.2112C150.628 13.107 152.232 11.5028 154.461 10.3987C156.69 9.27368 159.253 8.71118 162.148 8.71118C165.69 8.71118 168.607 9.38826 170.898 10.7424C173.211 12.0758 174.826 13.857 175.742 16.0862C176.68 18.2945 177.148 21.4091 177.148 25.4299V30.9299ZM164.492 24.1799V21.1487C164.492 19.0028 164.378 17.6174 164.148 16.9924C163.919 16.3674 163.451 16.0549 162.742 16.0549C161.867 16.0549 161.326 16.3258 161.117 16.8674C160.909 17.3883 160.805 18.8153 160.805 21.1487V24.1799H164.492ZM194.617 3.92993V10.4612H198.023V17.0237H194.617V39.2112C194.617 41.9403 194.753 43.4612 195.023 43.7737C195.315 44.0862 196.492 44.2424 198.555 44.2424V50.9299H193.461C190.586 50.9299 188.534 50.8153 187.305 50.5862C186.076 50.3362 184.992 49.7841 184.055 48.9299C183.117 48.0549 182.534 47.0653 182.305 45.9612C182.076 44.8362 181.961 42.2112 181.961 38.0862V17.0237H179.242V10.4612H181.961V3.92993H194.617Z" fill="#D11532"/>
</g>
<defs>
<filter id="filter0_i_1181_5" x="0.929688" y="0.336182" width="197.625" height="55.3438" filterUnits="userSpaceOnUse" color-interpolation-filters="sRGB">
<feFlood flood-opacity="0" result="BackgroundImageFix"/>
<feBlend mode="normal" in="SourceGraphic" in2="BackgroundImageFix" result="shape"/>
<feColorMatrix in="SourceAlpha" type="matrix" values="0 0 0 0 0 0 0 0 0 0 0 0 0 0 0 0 0 0 127 0" result="hardAlpha"/>
<feOffset dy="4"/>
<feGaussianBlur stdDeviation="2"/>
<feComposite in2="hardAlpha" operator="arithmetic" k2="-1" k3="1"/>
<feColorMatrix type="matrix" values="0 0 0 0 0 0 0 0 0 0 0 0 0 0 0 0 0 0 0.25 0"/>
<feBlend mode="normal" in2="shape" result="effect1_innerShadow_1181_5"/>
</filter>
</defs>
</svg>
