<svg width="401" height="166" viewBox="0 0 401 166" fill="none" xmlns="http://www.w3.org/2000/svg">
<path d="M16.158 33.2655C16.158 36.153 15.4973 38.1351 14.1759 39.2118C12.8545 40.2396 10.8969 40.7534 8.30305 40.7534C5.75813 40.7534 3.82498 40.2396 2.50358 39.2118C1.18218 38.1351 0.521484 36.153 0.521484 33.2655C0.521484 30.3291 1.18218 28.3959 2.50358 27.466C3.87392 26.4872 5.83154 25.9978 8.37646 25.9978C10.9214 25.9978 12.8545 26.4872 14.1759 27.466C15.4973 28.3959 16.158 30.3291 16.158 33.2655ZM16.158 57.0507C16.158 59.9382 15.4973 61.9203 14.1759 62.997C12.8545 64.0737 10.8969 64.6121 8.30305 64.6121C5.75813 64.6121 3.82498 64.0737 2.50358 62.997C1.18218 61.9203 0.521484 59.9382 0.521484 57.0507C0.521484 54.1632 1.18218 52.2545 2.50358 51.3247C3.87392 50.3458 5.83154 49.8564 8.37646 49.8564C10.9214 49.8564 12.8545 50.3458 14.1759 51.3247C15.4973 52.2545 16.158 54.1632 16.158 57.0507Z" fill="#DDF344"/>
<path d="M224.001 165.035H199.197C195.764 165.035 193.452 164.789 192.26 164.299C191.069 163.808 190.474 163.003 190.474 161.882V95.5617C190.474 93.7399 191.244 92.4436 192.786 91.6729C194.327 90.832 196.99 90.4116 200.774 90.4116H224.422C237.875 90.4116 247.159 93.0742 252.274 98.3994C257.389 103.655 259.946 113.254 259.946 127.198C259.946 141.141 257.284 150.951 251.959 156.626C246.633 162.232 237.314 165.035 224.001 165.035ZM223.161 106.072C221.479 106.072 220.358 106.212 219.797 106.492V148.954L223.791 149.374C225.893 149.374 227.47 147.693 228.521 144.329C229.642 140.966 230.202 135.15 230.202 126.882C230.202 118.614 229.642 113.079 228.521 110.276C227.4 107.473 225.613 106.072 223.161 106.072Z" fill="#DDF344"/>
<path d="M330.207 110.487C330.207 109.786 331.223 108.875 333.255 107.754C335.287 106.563 338.055 105.477 341.558 104.496C345.062 103.515 348.495 103.025 351.858 103.025C358.655 103.025 362.158 104.671 362.368 107.964V116.643C362.368 117.272 361.795 117.745 361.177 117.625L355.915 116.599C355.134 116.447 354.497 117.223 354.798 117.96L364.96 142.806C365.305 143.651 366.508 143.63 366.824 142.775L376.004 117.928C376.276 117.194 375.635 116.446 374.867 116.602L369.873 117.614C369.254 117.739 368.675 117.266 368.675 116.634V109.646C368.815 107.894 371.232 106.353 375.927 105.022C380.621 103.69 384.755 103.025 388.329 103.025C391.902 103.025 394.565 103.34 396.317 103.971C398.138 104.601 399.294 105.267 399.785 105.968C400.275 106.598 400.521 107.159 400.521 107.649C400.521 108.14 399.014 111.748 396.001 118.475C393.058 125.201 387.138 139.53 378.239 161.462C377.538 163.143 371.828 163.984 361.107 163.984C357.744 163.984 355.537 163.809 354.486 163.459C353.435 163.038 352.734 162.373 352.384 161.462C347.549 149.27 342.644 137.814 337.669 127.093C332.694 116.303 330.207 110.767 330.207 110.487Z" fill="#3B4883"/>
<path d="M293.777 140.23C293.777 144.785 295.949 147.062 300.293 147.062C302.816 147.062 306.109 146.221 310.173 144.54C314.237 142.788 316.374 141.912 316.584 141.912C317.916 141.912 319.667 143.909 321.839 147.903C324.011 151.897 325.098 154.84 325.098 156.732C325.098 159.464 322.295 161.531 316.689 162.933C311.084 164.334 305.584 165.035 300.188 165.035C294.863 165.035 290.379 164.614 286.735 163.774C283.162 162.933 280.219 161.882 277.906 160.62C275.664 159.289 273.667 157.678 271.916 155.786C270.234 153.894 268.973 152.107 268.132 150.425C267.291 148.674 266.625 146.747 266.135 144.645C265.434 141.562 265.084 138.374 265.084 135.08C265.084 122.328 268.412 113.534 275.069 108.7C278.362 106.247 282.041 104.531 286.104 103.55C290.168 102.569 294.968 102.078 300.504 102.078C318.231 102.078 327.094 108.244 327.094 120.576C327.094 133.679 317.145 140.23 297.245 140.23H293.777ZM293.567 124.885V131.822C295.599 131.822 297.245 131.016 298.507 129.405C299.838 127.793 300.504 125.831 300.504 123.519C300.504 119.315 299.417 117.213 297.245 117.213C294.793 117.213 293.567 119.77 293.567 124.885Z" fill="#3B4883"/>
<path d="M367.205 58.7561C367.205 63.3106 369.377 65.5878 373.721 65.5878C376.244 65.5878 379.537 64.747 383.601 63.0653C387.665 61.3136 389.802 60.4377 390.012 60.4377C391.343 60.4377 393.095 62.4347 395.267 66.4286C397.439 70.4225 398.525 73.3654 398.525 75.2572C398.525 77.9899 395.723 80.0569 390.117 81.4583C384.512 82.8597 379.011 83.5604 373.616 83.5604C368.291 83.5604 363.806 83.14 360.163 82.2991C356.589 81.4583 353.646 80.4073 351.334 79.1461C349.092 77.8148 347.095 76.2032 345.343 74.3113C343.662 72.4195 342.401 70.6327 341.56 68.9511C340.719 67.1994 340.053 65.2725 339.563 63.1704C338.862 60.0874 338.512 56.8993 338.512 53.6061C338.512 40.8536 341.84 32.06 348.496 27.2252C351.79 24.7728 355.468 23.0562 359.532 22.0752C363.596 21.0942 368.396 20.6038 373.931 20.6038C391.659 20.6038 400.522 26.7698 400.522 39.1019C400.522 52.2047 390.573 58.7561 370.673 58.7561H367.205ZM366.995 43.4111V50.3479C369.026 50.3479 370.673 49.5421 371.934 47.9305C373.266 46.3189 373.931 44.357 373.931 42.0447C373.931 37.8406 372.845 35.7386 370.673 35.7386C368.221 35.7386 366.995 38.2961 366.995 43.4111Z" fill="#3B4883"/>
<path d="M263.738 83.5609C261.146 83.5609 258.728 83.1755 256.486 82.4048C254.244 81.634 252.387 80.6881 250.916 79.567C249.514 78.4459 248.288 76.9394 247.237 75.0476C246.186 73.1557 245.38 71.369 244.82 69.6873C244.259 67.9356 243.839 65.7985 243.558 63.2761C243.138 59.5624 242.928 55.3233 242.928 50.5586C242.928 40.8191 244.714 33.4269 248.288 28.3819C251.861 23.2669 256.766 20.7094 263.002 20.7094C269.379 20.7094 274.003 22.2159 276.876 25.2288C277.506 25.9295 277.997 26.7703 278.347 27.7513H279.188L277.927 20.4992V7.36135C277.927 5.81984 279.889 4.31337 283.813 2.84192C287.736 1.37049 291.976 0.634766 296.53 0.634766C301.295 0.634766 304.343 1.54566 305.674 3.36744C306.164 4.06813 306.41 4.76881 306.41 5.4695V80.0925C306.41 80.8633 304.448 81.4939 300.524 81.9844C296.67 82.4048 292.922 82.615 289.278 82.615C285.704 82.615 283.392 82.5099 282.341 82.2997C281.36 82.0194 280.73 81.7391 280.449 81.4589C280.239 81.1786 280.099 80.7231 280.029 80.0925L279.188 74.1017H278.347C277.717 76.5541 276.455 78.6211 274.564 80.3027C272.181 82.4748 268.573 83.5609 263.738 83.5609ZM275.51 68.2159C276.631 68.2159 277.471 67.5152 278.032 66.1138V38.0514C278.032 37.3507 277.647 36.8252 276.876 36.4748C276.175 36.0544 275.545 35.8442 274.984 35.8442C272.602 35.8442 271.411 41.3096 271.411 52.2403C271.411 58.056 271.726 62.19 272.356 64.6424C273.057 67.0247 274.108 68.2159 275.51 68.2159Z" fill="#3B4883"/>
<path d="M204.406 83.5634C199.151 83.5634 194.631 83.108 190.848 82.1971C187.064 81.2862 183.631 79.6746 180.548 77.3623C174.172 72.7378 170.983 64.1194 170.983 51.5071C170.983 40.2961 174.242 32.2732 180.758 27.4385C186.854 22.9541 194.737 20.7119 204.406 20.7119C208.54 20.7119 212.079 20.9221 215.021 21.3425C217.964 21.6929 220.942 22.4987 223.955 23.7599C227.038 25.0211 229.49 26.7378 231.312 28.9099C233.204 31.0821 234.746 34.095 235.937 37.9488C237.128 41.7325 237.724 46.2519 237.724 51.5071C237.724 62.1575 234.711 70.1803 228.685 75.5756C222.659 80.9008 214.566 83.5634 204.406 83.5634Z" fill="#3B4883"/>
<path d="M132.452 83.5634C127.197 83.5634 122.677 83.108 118.894 82.1971C115.11 81.2862 111.677 79.6746 108.594 77.3623C102.217 72.7378 99.0293 64.1194 99.0293 51.5071C99.0293 40.2961 102.287 32.2732 108.804 27.4385C114.9 22.9541 122.782 20.7119 132.452 20.7119C136.586 20.7119 140.124 20.9221 143.067 21.3425C146.01 21.6929 148.988 22.4987 152.001 23.7599C155.084 25.0211 157.536 26.7378 159.358 28.9099C161.25 31.0821 162.792 34.095 163.983 37.9488C165.174 41.7325 165.769 46.2519 165.769 51.5071C165.769 62.1575 162.756 70.1803 156.731 75.5756C150.705 80.9008 142.612 83.5634 132.452 83.5634Z" fill="#3B4883"/>
<path d="M57.2514 82.613H32.4471C29.0138 82.613 26.7015 82.3678 25.5104 81.8773C24.3192 81.3868 23.7236 80.581 23.7236 79.4599V13.14C23.7236 11.3182 24.4944 10.022 26.0359 9.25122C27.5774 8.4104 30.24 7.98999 34.0237 7.98999H57.6718C71.1249 7.98999 80.4089 10.6526 85.5239 15.9778C90.6389 21.2329 93.1964 30.8323 93.1964 44.776C93.1964 58.7196 90.5338 68.5292 85.2086 74.2048C79.8834 79.8103 70.5643 82.613 57.2514 82.613ZM56.4105 23.6503C54.7289 23.6503 53.6078 23.7904 53.0472 24.0707V66.5323L57.0411 66.9527C59.1432 66.9527 60.7197 65.271 61.7708 61.9077C62.8919 58.5445 63.4524 52.7288 63.4524 44.4607C63.4524 36.1926 62.8919 30.6572 61.7708 27.8544C60.6497 25.0517 58.8629 23.6503 56.4105 23.6503Z" fill="#3B4883"/>
<path d="M314.121 8.93628H332.8V69.3509L331.06 72.0152H315.836L314.121 69.3756V8.93628Z" fill="#3B4883"/>
<path d="M332.8 8.93491C332.8 12.4809 328.619 15.3554 323.461 15.3554C318.303 15.3554 314.121 12.4809 314.121 8.93491C314.121 5.38896 318.303 2.5144 323.461 2.5144C328.619 2.5144 332.8 5.38896 332.8 8.93491Z" fill="#3B4883"/>
<path fill-rule="evenodd" clip-rule="evenodd" d="M316.814 70.2598C315.918 69.9637 315.148 70.9594 315.66 71.752L322.554 82.4202C322.946 83.0275 323.833 83.0304 324.23 82.4256L331.193 71.8013C331.714 71.0056 330.935 70 330.034 70.3065L326.67 71.4517C326.021 71.6725 325.347 71.1903 325.347 70.5051V67.5234C325.347 66.9712 324.9 66.5234 324.347 66.5234H322.425C321.872 66.5234 321.425 66.9712 321.425 67.5234V70.4C321.425 71.0815 320.758 71.5634 320.111 71.3495L316.814 70.2598ZM322.972 67.0708C322.42 67.0708 321.972 67.5186 321.972 68.0708V71.1575C321.972 71.839 321.305 72.3208 320.658 72.1069L318.117 71.2669C317.221 70.9707 316.451 71.9664 316.963 72.759L322.557 81.4165C322.949 82.0239 323.837 82.0268 324.233 81.422L329.862 72.8324C330.384 72.0366 329.604 71.031 328.704 71.3376L326.122 72.2163C325.474 72.4371 324.8 71.9549 324.8 71.2697V68.0708C324.8 67.5186 324.352 67.0708 323.8 67.0708H322.972Z" fill="#3B4883"/>
<path d="M324.233 81.422C323.837 82.0268 322.949 82.0239 322.557 81.4165L316.963 72.759C316.451 71.9664 317.221 70.9707 318.117 71.2669L320.658 72.1069C321.305 72.3208 321.972 71.839 321.972 71.1575V68.0708C321.972 67.5186 322.42 67.0708 322.972 67.0708H323.8C324.352 67.0708 324.8 67.5186 324.8 68.0708V71.2697C324.8 71.9549 325.474 72.4371 326.122 72.2163L328.704 71.3376C329.604 71.031 330.384 72.0366 329.862 72.8324L324.233 81.422Z" fill="#3B4883"/>
</svg>
