<svg width="423" height="142" viewBox="0 0 423 142" fill="none" xmlns="http://www.w3.org/2000/svg">
<path d="M39.6607 102.75C35.6741 102.75 32.5974 101.71 30.4307 99.6296C28.2641 97.5496 27.1807 95.4696 27.1807 93.3896C27.1807 91.6563 27.7441 90.2696 28.8707 89.2296C29.9974 88.1896 31.2107 87.6696 32.5107 87.6696C33.2041 87.6696 33.8107 87.7996 34.3307 88.0596C36.8441 89.3596 39.4874 90.7463 42.2607 92.2196C45.1207 93.693 48.5007 94.4296 52.4007 94.4296C54.3941 94.4296 56.4741 94.1696 58.6407 93.6496C63.0607 90.443 67.1774 86.6296 70.9907 82.2096C74.8907 77.703 78.2707 73.1096 81.1307 68.4296C83.9907 63.7496 86.1574 59.5896 87.6307 55.9496C90.3174 49.1896 91.6607 43.0796 91.6607 37.6196C91.6607 32.5063 90.5774 28.2596 88.4107 24.8796C86.3307 21.413 83.5141 18.813 79.9607 17.0796C76.4074 15.3463 72.4641 14.4796 68.1307 14.4796C62.8441 14.4796 57.9041 15.2163 53.3107 16.6896C52.7907 17.0363 52.2707 17.4263 51.7507 17.8596C51.2307 18.2063 50.7541 18.6396 50.3207 19.1596C49.2807 20.4596 48.8474 21.6296 49.0207 22.6696C49.9741 22.7563 50.7107 23.1896 51.2307 23.9696C51.8374 24.7496 52.1407 25.6163 52.1407 26.5696C52.1407 27.6963 51.9674 28.6063 51.6207 29.2996C51.2741 29.993 50.9707 30.5996 50.7107 31.1196C50.2774 31.813 50.0607 32.6796 50.0607 33.7196C50.0607 34.153 50.1474 34.5863 50.3207 35.0196C50.4941 35.3663 50.8407 35.6263 51.3607 35.7996C51.1874 36.1463 50.7974 36.3196 50.1907 36.3196C49.2374 36.3196 48.3274 35.843 47.4607 34.8896C46.5941 33.9363 45.9007 32.8096 45.3807 31.5096C44.8607 30.2096 44.6007 29.0396 44.6007 27.9996C44.6007 26.5263 44.9907 25.313 45.7707 24.3596C46.5507 23.3196 47.3741 22.7563 48.2407 22.6696V22.1496C48.2407 21.023 48.5874 19.8963 49.2807 18.7696C49.3674 18.5963 49.5841 18.3363 49.9307 17.9896C45.1641 19.8963 41.0041 22.4963 37.4507 25.7896C33.8974 28.9963 30.9507 32.463 28.6107 36.1896C27.8307 37.4896 27.0941 38.833 26.4007 40.2196C25.7074 41.5196 25.1441 42.863 24.7107 44.2496C24.5374 44.7696 24.4074 45.333 24.3207 45.9396C24.2341 46.5463 24.1907 47.153 24.1907 47.7596C24.1907 49.0596 24.4074 50.3163 24.8407 51.5296C25.2741 52.6563 25.9674 53.5663 26.9207 54.2596C27.9607 53.4796 29.1741 53.0896 30.5607 53.0896C31.4274 53.0896 32.1641 53.2196 32.7707 53.4796C33.9841 53.913 34.8941 54.433 35.5007 55.0396C36.1941 55.6463 36.7574 56.253 37.1907 56.8596C37.6241 57.293 38.1874 57.7263 38.8807 58.1596C39.6607 58.5063 40.3974 58.6796 41.0907 58.6796C42.0441 58.6796 42.7374 58.333 43.1707 57.6396C43.4307 57.8996 43.5607 58.203 43.5607 58.5496C43.5607 58.8096 43.4307 59.1996 43.1707 59.7196C42.5641 60.933 41.3074 61.8863 39.4007 62.5796C37.5807 63.1863 35.7607 63.4896 33.9407 63.4896C31.2541 63.4896 29.1307 62.6663 27.5707 61.0196C26.0107 59.373 25.4041 57.7696 25.7507 56.2096C25.9241 55.6896 26.0974 55.343 26.2707 55.1696C25.4907 54.6496 24.8407 53.9563 24.3207 53.0896C23.8007 52.1363 23.3674 51.183 23.0207 50.2296C22.8474 51.3563 22.6741 52.483 22.5007 53.6096C22.4141 54.7363 22.3707 55.8196 22.3707 56.8596C22.3707 60.933 23.0641 64.3563 24.4507 67.1296C26.0107 70.163 28.2641 72.373 31.2107 73.7596C34.1574 75.1463 37.2341 75.8396 40.4407 75.8396C45.7274 75.8396 50.5374 74.453 54.8707 71.6796C55.8241 70.9863 56.7774 69.903 57.7307 68.4296C58.7707 66.9563 59.1607 65.3963 58.9007 63.7496C58.3807 64.0096 57.7741 64.1396 57.0807 64.1396C56.1274 64.1396 55.1741 63.8363 54.2207 63.2296C53.2674 62.5363 52.5741 61.713 52.1407 60.7596C51.5341 59.5463 51.1874 58.463 51.1007 57.5096C51.1007 56.4696 51.1007 55.603 51.1007 54.9096C51.1007 53.8696 50.7541 52.743 50.0607 51.5296C49.3674 50.3163 48.4141 49.883 47.2007 50.2296C47.4607 49.4496 47.9374 48.9296 48.6307 48.6696C49.3241 48.323 50.0174 48.1496 50.7107 48.1496C51.3174 48.1496 51.8807 48.2363 52.4007 48.4096C52.9207 48.4963 53.3541 48.6263 53.7007 48.7996C55.1741 49.3196 56.4741 50.1863 57.6007 51.3996C58.8141 52.5263 59.7241 53.653 60.3307 54.7796C61.1107 56.1663 61.5007 57.553 61.5007 58.9396C61.5007 60.7596 60.9374 62.1463 59.8107 63.0996C59.9841 63.4463 60.0707 63.793 60.0707 64.1396C60.0707 64.4863 60.0707 64.8763 60.0707 65.3096C60.0707 66.3496 59.8107 67.4763 59.2907 68.6896C58.9441 69.4696 58.5541 70.163 58.1207 70.7696C58.3807 70.683 58.6407 70.6396 58.9007 70.6396C59.1607 70.6396 59.3774 70.6396 59.5507 70.6396C60.8507 70.813 61.7174 71.2463 62.1507 71.9396C62.6707 72.633 62.9307 73.3263 62.9307 74.0196C62.9307 74.453 62.8441 74.9296 62.6707 75.4496C62.5841 75.7963 62.3241 75.9696 61.8907 75.9696C61.3707 75.9696 61.0674 75.623 60.9807 74.9296C60.8941 74.323 60.5041 73.933 59.8107 73.7596C59.1174 73.4996 58.3374 73.3696 57.4707 73.3696C57.1241 73.3696 56.7341 73.413 56.3007 73.4996C55.9541 73.4996 55.5641 73.543 55.1307 73.6296C55.0441 73.7163 54.9574 73.7596 54.8707 73.7596H54.7407C50.4074 76.533 45.4241 77.9196 39.7907 77.9196C36.0641 77.9196 32.5107 77.1396 29.1307 75.5796C25.7507 73.933 23.1507 71.333 21.3307 67.7796V68.5596C21.3307 69.5996 21.1574 70.4663 20.8107 71.1596C19.9441 73.2396 18.6441 74.2796 16.9107 74.2796C15.6974 74.2796 14.7441 73.673 14.0507 72.4596C13.7041 71.853 13.6174 71.3763 13.7907 71.0296C13.9641 70.683 14.2241 70.683 14.5707 71.0296C14.8307 71.2896 15.1341 71.4196 15.4807 71.4196C16.6074 71.4196 17.6907 70.683 18.7307 69.2096C19.1641 68.6896 19.5107 67.953 19.7707 66.9996C20.1174 66.0463 20.2041 65.1363 20.0307 64.2696C19.2507 61.7563 18.8607 59.0696 18.8607 56.2096C18.8607 52.9163 19.3807 49.5363 20.4207 46.0696C21.4607 42.5163 23.0641 39.0496 25.2307 35.6696C26.4441 33.6763 27.8307 31.7696 29.3907 29.9496C31.0374 28.1296 32.8141 26.3963 34.7207 24.7496C34.3741 24.8363 33.9841 24.8796 33.5507 24.8796C33.1174 24.8796 32.6841 24.8796 32.2507 24.8796C30.2574 24.7063 28.5674 23.9263 27.1807 22.5396C26.8341 22.713 26.3141 22.7996 25.6207 22.7996C24.5807 22.7996 23.4541 22.4096 22.2407 21.6296C21.1141 20.8496 20.2041 19.723 19.5107 18.2496C19.1641 17.5563 18.8607 16.6896 18.6007 15.6496C18.4274 14.6096 18.3407 13.5696 18.3407 12.5296C18.3407 10.9696 18.5574 9.49629 18.9907 8.10962C19.5107 6.72296 20.2041 5.72629 21.0707 5.11962C21.6774 4.68629 22.1541 4.51296 22.5007 4.59962C22.9341 4.59962 23.1941 4.64296 23.2807 4.72963C22.6741 5.24963 22.3707 5.89963 22.3707 6.67963C22.3707 7.45963 22.6307 8.23963 23.1507 9.01963C23.7574 9.79963 24.3641 10.4063 24.9707 10.8396C25.6641 11.273 26.3574 11.793 27.0507 12.3996C27.8307 12.9196 28.5241 13.7863 29.1307 14.9996C29.6507 15.8663 29.9107 16.9063 29.9107 18.1196C29.9107 19.853 29.3474 21.153 28.2207 22.0196C29.1741 22.973 30.6907 23.4496 32.7707 23.4496C33.5507 23.4496 34.3307 23.363 35.1107 23.1896C35.9774 23.0163 36.7574 22.7996 37.4507 22.5396C40.4841 20.2863 43.8641 18.3363 47.5907 16.6896C51.4041 14.9563 55.4774 13.6563 59.8107 12.7896C58.7707 12.3563 57.8607 11.7496 57.0807 10.9696C56.3874 10.103 56.0407 9.14963 56.0407 8.10962C56.0407 6.98296 56.3874 6.24629 57.0807 5.89963C57.7741 5.46629 58.3807 5.24962 58.9007 5.24962C58.9874 5.24962 59.0307 5.24962 59.0307 5.24962H58.9007C58.5541 5.33629 58.3807 5.81296 58.3807 6.67963C58.3807 7.54629 58.6841 8.62962 59.2907 9.92962C59.8974 11.2296 60.7641 12.053 61.8907 12.3996L62.0207 12.5296C64.8807 12.0096 67.9141 11.7496 71.1207 11.7496C76.4941 11.7496 81.4341 12.6596 85.9407 14.4796C90.4474 16.213 94.0441 18.8996 96.7307 22.5396C99.4174 26.093 100.761 30.6863 100.761 36.3196C100.761 38.7463 100.457 41.3896 99.8507 44.2496C99.2441 47.1096 98.2907 50.1863 96.9907 53.4796C95.6041 56.9463 93.3507 60.933 90.2307 65.4396C87.1974 69.8596 83.6007 74.323 79.4407 78.8296C75.3674 83.3363 70.9907 87.453 66.3107 91.1796C70.1241 89.4463 74.3707 87.0196 79.0507 83.8996C83.7307 80.693 88.9741 76.533 94.7807 71.4196C100.241 66.653 105.224 61.4963 109.731 55.9496C114.237 50.403 118.267 45.073 121.821 39.9596C125.461 34.7596 128.711 30.2963 131.571 26.5696C137.031 19.463 141.971 14.003 146.391 10.1896C150.897 6.37629 154.927 3.73296 158.481 2.25962C162.121 0.786291 165.327 0.049626 168.101 0.049626C169.574 0.049626 170.874 0.179624 172.001 0.439621C173.994 0.786288 175.597 1.65296 176.811 3.03963C178.024 4.42629 178.631 6.02962 178.631 7.84963C178.631 9.06296 178.327 10.2763 177.721 11.4896L175.901 10.7096C176.421 9.66963 176.681 8.67296 176.681 7.71963C176.681 6.07296 176.031 4.72962 174.731 3.68963C173.517 2.64962 171.914 2.12962 169.921 2.12962C167.407 2.12962 164.331 3.12629 160.691 5.11962C157.137 7.11296 152.977 10.4063 148.211 14.9996C143.531 19.5063 138.201 25.6163 132.221 33.3296C127.974 38.8763 122.947 45.073 117.141 51.9196C111.334 58.6796 104.314 65.6996 96.0807 72.9796C88.4541 79.653 81.6941 84.6796 75.8007 88.0596C69.9074 91.353 64.7941 93.7363 60.4607 95.2096C56.9074 97.463 53.3541 99.283 49.8007 100.67C46.3341 102.056 42.9541 102.75 39.6607 102.75ZM39.4007 100.93C42.0007 100.93 44.5574 100.496 47.0707 99.6296C49.5841 98.8496 52.0974 97.7663 54.6107 96.3796H53.9607C53.6141 96.4663 53.2674 96.5096 52.9207 96.5096C52.5741 96.5096 52.1841 96.5096 51.7507 96.5096C49.3241 96.5096 47.1141 96.2496 45.1207 95.7296C43.2141 95.2096 41.6974 94.8196 40.5707 94.5596C39.7907 94.3863 39.0541 94.2563 38.3607 94.1696C37.7541 94.083 37.1907 94.0396 36.6707 94.0396C34.3307 94.0396 33.1607 94.7763 33.1607 96.2496C33.1607 97.2896 33.7674 98.3296 34.9807 99.3696C36.2807 100.41 37.7541 100.93 39.4007 100.93ZM133.348 48.7996C132.135 48.7996 131.181 48.4096 130.488 47.6296C129.881 46.8496 129.578 45.9396 129.578 44.8996C129.578 43.1663 130.185 41.7796 131.398 40.7396C132.611 39.6996 133.911 39.1796 135.298 39.1796C136.511 39.1796 137.465 39.5696 138.158 40.3496C138.851 41.043 139.198 41.953 139.198 43.0796C139.198 44.7263 138.591 46.113 137.378 47.2396C136.165 48.2796 134.821 48.7996 133.348 48.7996ZM111.768 97.6796C109.428 97.6796 107.435 96.9863 105.788 95.5996C104.228 94.1263 103.448 92.0463 103.448 89.3596C103.448 87.973 103.708 86.3696 104.228 84.5496C104.835 82.643 105.528 80.9096 106.308 79.3496C107.175 77.703 107.911 76.3596 108.518 75.3196C109.211 74.2796 109.558 73.7596 109.558 73.7596L122.298 54.9096C122.818 54.4763 123.468 54.2163 124.248 54.1296C125.028 53.9563 125.851 53.8696 126.718 53.8696C127.931 53.8696 128.971 53.9996 129.838 54.2596C130.705 54.433 131.051 54.7363 130.878 55.1696L118.008 74.2796C117.748 74.6263 116.881 75.8396 115.408 77.9196C114.021 79.913 112.678 82.123 111.378 84.5496C109.731 87.583 108.908 90.183 108.908 92.3496C108.908 94.6896 109.991 95.8596 112.158 95.8596C112.851 95.8596 113.675 95.7296 114.628 95.4696C115.668 95.123 116.838 94.603 118.138 93.9096C123.598 90.8763 129.188 84.723 134.908 75.4496C135.168 75.0163 135.385 74.7996 135.558 74.7996C135.818 74.713 135.991 74.6696 136.078 74.6696C136.511 74.6696 136.771 74.843 136.858 75.1896C137.031 75.4496 136.988 75.7963 136.728 76.2296C133.608 80.9963 130.531 85.113 127.498 88.5796C124.551 92.0463 121.431 94.5596 118.138 96.1196C115.971 97.1596 113.848 97.6796 111.768 97.6796ZM141.947 97.2896C141.601 97.2896 141.211 97.2463 140.777 97.1596C140.344 97.1596 139.911 97.1163 139.477 97.0296C136.964 96.423 135.144 95.2963 134.017 93.6496C132.977 91.9163 132.457 89.8363 132.457 87.4096C132.457 85.503 132.717 83.4663 133.237 81.2996C133.844 79.0463 134.581 76.7063 135.447 74.2796C136.921 70.4663 138.741 66.263 140.907 61.6696C143.161 56.9896 145.674 52.223 148.447 47.3696C151.307 42.4296 154.297 37.663 157.417 33.0696C160.624 28.4763 163.917 24.3163 167.297 20.5896C169.291 18.3363 171.284 16.2996 173.277 14.4796C175.357 12.6596 177.394 11.1863 179.387 10.0596C182.767 7.97962 185.887 6.93962 188.747 6.93962C190.481 6.93962 191.824 7.37296 192.777 8.23962C193.817 9.01962 194.337 10.2763 194.337 12.0096C194.337 13.1363 194.077 14.4363 193.557 15.9096C193.124 17.2963 192.344 18.8996 191.217 20.7196C189.051 24.3596 186.234 28.173 182.767 32.1596C179.387 36.1463 175.704 40.0463 171.717 43.8596C167.731 47.5863 163.701 51.0096 159.627 54.1296C155.641 57.2496 151.871 59.8063 148.317 61.7996C146.584 64.9196 144.937 68.2563 143.377 71.8096C141.817 75.2763 140.561 78.613 139.607 81.8196C138.654 84.9396 138.177 87.6263 138.177 89.8796C138.177 91.613 138.524 92.9996 139.217 94.0396C139.911 95.0796 140.994 95.5996 142.467 95.5996C144.374 95.5996 146.584 94.733 149.097 92.9996C151.611 91.2663 154.211 88.9263 156.897 85.9796C159.671 82.9463 162.271 79.4363 164.697 75.4496C165.131 74.9296 165.564 74.6696 165.997 74.6696C166.257 74.6696 166.431 74.843 166.517 75.1896C166.691 75.5363 166.691 75.883 166.517 76.2296C162.271 82.7296 158.111 87.8863 154.037 91.6996C150.051 95.4263 146.021 97.2896 141.947 97.2896ZM149.227 59.3296C152.001 57.7696 155.207 55.3863 158.847 52.1796C162.574 48.973 166.344 45.4196 170.157 41.5196C173.971 37.533 177.481 33.5896 180.687 29.6896C183.981 25.7896 186.537 22.3663 188.357 19.4196C189.311 17.8596 190.004 16.5163 190.437 15.3896C190.871 14.263 191.087 13.3096 191.087 12.5296C191.087 10.9696 190.394 10.1896 189.007 10.1896C187.187 10.1896 184.761 11.4463 181.727 13.9596C179.561 15.7796 177.524 17.8163 175.617 20.0696C173.711 22.2363 172.367 23.8396 171.587 24.8796C167.601 30.1663 163.744 35.9296 160.017 42.1696C156.291 48.323 152.694 54.043 149.227 59.3296ZM171.654 97.2896C171.308 97.2896 170.918 97.2463 170.484 97.1596C170.051 97.1596 169.618 97.1163 169.184 97.0296C166.671 96.423 164.851 95.2963 163.724 93.6496C162.684 91.9163 162.164 89.8363 162.164 87.4096C162.164 85.503 162.424 83.4663 162.944 81.2996C163.551 79.0463 164.288 76.7063 165.154 74.2796C166.628 70.4663 168.448 66.263 170.614 61.6696C172.868 56.9896 175.381 52.223 178.154 47.3696C181.014 42.4296 184.004 37.663 187.124 33.0696C190.331 28.4763 193.624 24.3163 197.004 20.5896C198.998 18.3363 200.991 16.2996 202.984 14.4796C205.064 12.6596 207.101 11.1863 209.094 10.0596C212.474 7.97962 215.594 6.93962 218.454 6.93962C220.188 6.93962 221.531 7.37296 222.484 8.23962C223.524 9.01962 224.044 10.2763 224.044 12.0096C224.044 13.1363 223.784 14.4363 223.264 15.9096C222.831 17.2963 222.051 18.8996 220.924 20.7196C218.758 24.3596 215.941 28.173 212.474 32.1596C209.094 36.1463 205.411 40.0463 201.424 43.8596C197.438 47.5863 193.408 51.0096 189.334 54.1296C185.348 57.2496 181.578 59.8063 178.024 61.7996C176.291 64.9196 174.644 68.2563 173.084 71.8096C171.524 75.2763 170.268 78.613 169.314 81.8196C168.361 84.9396 167.884 87.6263 167.884 89.8796C167.884 91.613 168.231 92.9996 168.924 94.0396C169.618 95.0796 170.701 95.5996 172.174 95.5996C174.081 95.5996 176.291 94.733 178.804 92.9996C181.318 91.2663 183.918 88.9263 186.604 85.9796C189.378 82.9463 191.978 79.4363 194.404 75.4496C194.838 74.9296 195.271 74.6696 195.704 74.6696C195.964 74.6696 196.138 74.843 196.224 75.1896C196.398 75.5363 196.398 75.883 196.224 76.2296C191.978 82.7296 187.818 87.8863 183.744 91.6996C179.758 95.4263 175.728 97.2896 171.654 97.2896ZM178.934 59.3296C181.708 57.7696 184.914 55.3863 188.554 52.1796C192.281 48.973 196.051 45.4196 199.864 41.5196C203.678 37.533 207.188 33.5896 210.394 29.6896C213.688 25.7896 216.244 22.3663 218.064 19.4196C219.018 17.8596 219.711 16.5163 220.144 15.3896C220.578 14.263 220.794 13.3096 220.794 12.5296C220.794 10.9696 220.101 10.1896 218.714 10.1896C216.894 10.1896 214.468 11.4463 211.434 13.9596C209.268 15.7796 207.231 17.8163 205.324 20.0696C203.418 22.2363 202.074 23.8396 201.294 24.8796C197.308 30.1663 193.451 35.9296 189.724 42.1696C185.998 48.323 182.401 54.043 178.934 59.3296ZM198.631 96.8996C196.205 96.8996 194.341 95.9896 193.041 94.1696C191.741 92.263 191.091 89.8363 191.091 86.8896C191.091 83.683 191.958 79.9563 193.691 75.7096C194.645 73.3696 196.075 70.9863 197.981 68.5596C199.888 66.0463 202.098 63.7496 204.611 61.6696C207.125 59.503 209.811 57.7696 212.671 56.4696C215.618 55.083 218.608 54.3896 221.641 54.3896C223.981 54.3896 225.585 54.9963 226.451 56.2096C227.318 57.423 227.751 58.8963 227.751 60.6296C227.751 62.2763 227.491 63.9663 226.971 65.6996L234.251 54.6496C234.858 54.2163 236.201 53.9996 238.281 53.9996C239.841 53.9996 241.315 54.173 242.701 54.5196C244.175 54.8663 244.608 55.3863 244.001 56.0796C243.308 56.9463 242.095 58.2896 240.361 60.1096C238.715 61.843 236.895 63.923 234.901 66.3496C232.995 68.7763 231.175 71.333 229.441 74.0196C228.575 75.493 227.275 77.6596 225.541 80.5196C223.895 83.3796 222.595 86.1096 221.641 88.7096C221.121 90.2696 220.861 91.5263 220.861 92.4796C220.861 94.2996 221.641 95.2096 223.201 95.2096C224.068 95.2096 225.238 94.9063 226.711 94.2996C228.185 93.6063 229.615 92.6963 231.001 91.5696C233.775 89.3163 236.201 86.6296 238.281 83.5096C240.361 80.303 242.225 77.4863 243.871 75.0596C243.958 74.973 244.045 74.8863 244.131 74.7996C244.305 74.713 244.565 74.6696 244.911 74.6696C245.258 74.6696 245.518 74.843 245.691 75.1896C245.865 75.4496 245.778 75.7963 245.431 76.2296C243.005 79.8696 240.621 83.293 238.281 86.4996C235.941 89.6196 233.558 92.133 231.131 94.0396C228.705 95.9463 226.061 96.8996 223.201 96.8996C220.948 96.8996 219.128 96.2496 217.741 94.9496C216.441 93.563 215.791 91.6996 215.791 89.3596C215.791 88.3196 215.878 87.2363 216.051 86.1096C216.311 84.983 216.615 83.943 216.961 82.9896C215.575 84.8096 213.841 86.803 211.761 88.9696C209.768 91.1363 207.645 92.9996 205.391 94.5596C203.138 96.1196 200.885 96.8996 198.631 96.8996ZM199.801 94.4296C201.535 94.4296 203.355 93.7363 205.261 92.3496C207.255 90.963 209.248 89.1863 211.241 87.0196C213.235 84.7663 215.055 82.383 216.701 79.8696C218.088 77.7896 219.431 75.5796 220.731 73.2396C222.118 70.8996 223.245 68.603 224.111 66.3496C225.065 64.0963 225.541 62.0596 225.541 60.2396C225.541 57.4663 224.545 56.0796 222.551 56.0796C221.165 56.0796 219.561 56.6863 217.741 57.8996C215.921 59.113 214.058 60.673 212.151 62.5796C210.331 64.4863 208.598 66.5663 206.951 68.8196C205.391 70.9863 204.135 73.1096 203.181 75.1896C202.921 75.7096 202.271 76.9663 201.231 78.9596C200.278 80.953 199.325 83.1196 198.371 85.4596C197.505 87.7996 197.071 89.8363 197.071 91.5696C197.071 93.4763 197.981 94.4296 199.801 94.4296Z" fill="black"/>
<path d="M327.367 97.704C324.231 97.704 321.383 97.16 318.823 96.072C316.327 95.048 314.343 93.544 312.871 91.56C311.399 89.576 310.663 87.272 310.663 84.648C310.663 82.408 311.175 80.136 312.199 77.832C313.223 75.4 314.695 73.32 316.615 71.592C318.599 69.8 320.711 68.424 322.951 67.464C325.191 66.504 327.239 66.024 329.095 66.024C330.759 66.024 332.071 66.376 333.031 67.08C334.055 67.72 334.567 68.84 334.567 70.44C334.567 71.272 334.375 72.328 333.991 73.608C333.991 74.056 333.863 74.408 333.607 74.664C333.415 74.92 333.191 75.048 332.935 75.048C332.487 75.048 332.263 74.76 332.263 74.184C332.263 74.056 332.263 73.928 332.263 73.8C332.327 73.672 332.391 73.512 332.455 73.32C332.711 72.744 332.839 72.072 332.839 71.304C332.839 70.344 332.583 69.544 332.071 68.904C331.559 68.2 330.919 67.848 330.151 67.848C328.679 67.848 327.015 68.36 325.159 69.384C323.303 70.344 321.575 71.592 319.975 73.128C318.439 74.664 317.255 76.328 316.423 78.12C315.399 80.424 314.887 82.728 314.887 85.032C314.887 88.168 315.911 90.824 317.959 93C320.071 95.112 323.175 96.168 327.271 96.168C330.215 96.168 333.255 95.496 336.391 94.152C339.591 92.872 342.631 91.208 345.511 89.16C348.455 87.048 351.015 84.808 353.191 82.44C355.367 80.072 356.903 77.8 357.799 75.624C358.631 73.576 359.207 71.72 359.527 70.056C359.911 68.392 360.103 66.888 360.103 65.544C360.103 62.92 359.495 60.84 358.279 59.304C357.063 57.768 355.527 56.648 353.671 55.944C351.367 56.84 349.127 57.544 346.951 58.056C344.775 58.504 342.919 58.728 341.383 58.728C339.399 58.728 338.407 58.216 338.407 57.192C338.407 56.936 338.503 56.616 338.695 56.232C339.463 55.016 340.807 54.216 342.727 53.832C344.647 53.384 346.567 53.16 348.487 53.16C349.447 53.16 350.343 53.192 351.175 53.256C352.007 53.32 352.711 53.416 353.287 53.544C355.207 52.456 357.127 51.08 359.047 49.416C360.967 47.752 362.279 45.8 362.983 43.56C363.239 42.728 363.431 41.896 363.559 41.064C363.751 40.168 363.847 39.304 363.847 38.472C363.847 36.872 363.367 35.496 362.407 34.344C361.511 33.192 359.751 32.616 357.127 32.616C355.463 32.616 353.767 32.936 352.039 33.576C350.311 34.216 348.743 35.176 347.335 36.456C345.991 37.736 345.031 39.336 344.455 41.256C344.391 41.64 344.295 42.024 344.167 42.408C344.103 42.728 344.071 43.048 344.071 43.368C344.071 45.096 344.807 45.96 346.279 45.96C347.303 45.96 348.135 45.672 348.775 45.096C349.415 44.52 349.927 43.848 350.311 43.08C350.311 42.696 350.439 42.44 350.695 42.312L350.887 41.832V42.216H350.983C351.431 42.216 351.655 42.568 351.655 43.272V43.368C351.207 44.392 350.311 45.352 348.967 46.248C347.687 47.08 346.407 47.496 345.127 47.496C343.975 47.496 343.015 47.112 342.247 46.344C341.671 45.64 341.383 44.808 341.383 43.848C341.383 42.76 341.671 41.608 342.247 40.392C342.823 39.112 343.495 38.024 344.263 37.128C345.735 35.4 347.367 34.088 349.159 33.192C351.015 32.232 352.807 31.56 354.535 31.176C356.263 30.792 357.639 30.6 358.663 30.6C361.351 30.6 363.399 30.984 364.807 31.752C366.215 32.52 367.175 33.512 367.687 34.728C368.263 35.944 368.551 37.224 368.551 38.568C368.551 39.528 368.455 40.488 368.263 41.448C368.135 42.344 367.943 43.176 367.687 43.944C367.047 46.12 365.671 48.136 363.559 49.992C361.511 51.784 359.207 53.32 356.647 54.6C359.847 55.816 362.151 57.672 363.559 60.168C365.031 62.664 365.767 65.32 365.767 68.136C365.767 70.824 365.191 73.384 364.039 75.816C362.823 78.376 360.999 80.968 358.567 83.592C356.199 86.152 353.351 88.52 350.023 90.696C346.759 92.808 343.207 94.504 339.367 95.784C335.527 97.064 331.527 97.704 327.367 97.704ZM343.111 57.096C343.623 57.096 344.199 57.032 344.839 56.904C345.479 56.776 346.119 56.616 346.759 56.424C347.015 56.36 347.463 56.232 348.103 56.04C348.743 55.784 349.511 55.432 350.407 54.984C349.767 54.856 349.095 54.76 348.391 54.696C347.751 54.632 347.079 54.6 346.375 54.6C345.223 54.6 344.103 54.856 343.015 55.368C341.991 55.816 341.479 56.168 341.479 56.424C341.479 56.872 342.023 57.096 343.111 57.096ZM404.61 28.776C407.362 28.776 409.986 29.448 412.482 30.792C414.978 32.136 417.026 34.152 418.626 36.84C420.29 39.464 421.122 42.728 421.122 46.632C421.122 50.664 420.226 55.016 418.434 59.688C416.706 64.36 414.306 69.064 411.234 73.8C408.162 78.536 404.642 83.08 400.674 87.432C396.77 91.72 392.61 95.56 388.194 98.952C383.842 102.344 379.458 105 375.042 106.92C370.69 108.904 366.53 109.896 362.562 109.896C361.346 109.896 360.77 109.544 360.834 108.84C360.898 108.136 361.346 107.784 362.178 107.784C366.338 107.784 370.274 106.984 373.986 105.384C377.762 103.784 381.282 101.64 384.546 98.952C387.81 96.328 390.818 93.416 393.57 90.216C396.322 86.952 398.786 83.656 400.962 80.328C403.202 77 405.154 73.864 406.818 70.92C408.482 67.976 409.826 65.512 410.85 63.528C412.706 59.944 414.05 56.584 414.882 53.448C415.714 50.312 416.13 47.464 416.13 44.904C416.13 40.36 414.978 36.84 412.674 34.344C410.434 31.784 407.458 30.504 403.746 30.504C400.674 30.504 397.57 31.336 394.434 33C391.298 34.6 388.482 36.744 385.986 39.432C383.554 42.12 381.73 45.096 380.514 48.36C379.618 50.728 379.17 53.128 379.17 55.56C379.17 58.12 379.906 60.36 381.378 62.28C382.914 64.2 385.666 65.16 389.634 65.16C392.45 65.16 395.01 64.584 397.314 63.432C399.618 62.216 401.602 60.776 403.266 59.112C404.994 57.448 406.402 55.848 407.49 54.312C408.642 52.776 409.41 51.656 409.794 50.952C409.922 50.44 410.114 50.088 410.37 49.896C410.69 49.64 410.946 49.512 411.138 49.512C411.586 49.512 411.81 49.736 411.81 50.184C411.81 50.44 411.65 50.824 411.33 51.336C410.498 52.936 409.314 54.696 407.778 56.616C406.242 58.472 404.418 60.264 402.306 61.992C400.258 63.656 397.986 65.032 395.49 66.12C392.994 67.208 390.338 67.752 387.522 67.752C383.554 67.752 380.386 66.568 378.018 64.2C375.714 61.832 374.562 58.76 374.562 54.984C374.562 51.464 375.394 48.136 377.058 45C378.786 41.864 381.09 39.08 383.97 36.648C386.85 34.216 390.082 32.296 393.666 30.888C397.25 29.48 400.898 28.776 404.61 28.776Z" fill="black"/>
<path d="M271.045 5.6543C267.137 31.9295 288.126 64.9901 265.898 75.1143C242.48 85.7805 246.481 36.2219 271.045 5.6543Z" fill="#846E36"/>
<path d="M315.903 55.8042C300.374 61.7119 279.882 60.9546 276.455 86.6756C274.534 101.098 296.287 109.383 315.903 55.8042Z" fill="#846E36"/>
<path d="M264.795 101.056C271.243 83.3546 280.904 98.9057 294.342 70.5471" stroke="#625229" stroke-width="2"/>
<path d="M264.704 114.067C266.094 82.3083 260.836 83.2083 261.562 49.9535" stroke="#625229" stroke-width="2"/>
<path d="M168.921 116.949C168.779 117.589 168.708 118.229 168.708 118.869V125.989C168.708 127.341 167.89 128.016 166.254 128.016V127.963C167.019 127.625 167.401 126.967 167.401 125.989V118.869C167.401 118.247 167.348 117.607 167.241 116.949H168.921ZM176.968 124.443V125.696C176.31 126.478 175.412 126.869 174.274 126.869C173.137 126.869 172.248 126.487 171.608 125.723C170.986 124.958 170.674 124.114 170.674 123.189C170.674 122.247 170.977 121.394 171.581 120.629C172.221 119.865 173.083 119.483 174.168 119.483C175.252 119.483 176.114 119.909 176.754 120.763C177.163 121.385 177.368 122.185 177.368 123.163L177.341 123.563H172.088C172.141 124.327 172.337 124.896 172.674 125.269C173.083 125.785 173.67 126.043 174.434 126.043C175.466 126.043 176.283 125.509 176.888 124.443H176.968ZM176.034 122.763C176.034 122.016 175.892 121.456 175.608 121.083C175.199 120.549 174.692 120.283 174.088 120.283C173.501 120.283 173.03 120.549 172.674 121.083C172.337 121.474 172.141 122.034 172.088 122.763H176.034ZM180.542 126.736C180.453 126.043 180.302 125.403 180.088 124.816L178.862 121.376C178.702 120.896 178.426 120.301 178.035 119.589H179.742C179.813 120.158 179.964 120.798 180.195 121.509L181.502 125.109L182.702 121.509C182.897 120.869 183.048 120.229 183.155 119.589H184.462C184.515 120.158 184.666 120.798 184.915 121.509L186.195 125.109L187.395 121.509C187.608 120.869 187.768 120.229 187.875 119.589H189.208C188.8 120.318 188.524 120.914 188.382 121.376L187.155 124.816C186.942 125.403 186.791 126.043 186.702 126.736H185.262C185.173 126.043 185.022 125.403 184.808 124.816L183.608 121.483L182.408 124.816C182.195 125.456 182.053 126.096 181.982 126.736H180.542ZM196.167 124.443V125.696C195.509 126.478 194.611 126.869 193.474 126.869C192.336 126.869 191.447 126.487 190.807 125.723C190.185 124.958 189.874 124.114 189.874 123.189C189.874 122.247 190.176 121.394 190.78 120.629C191.42 119.865 192.283 119.483 193.367 119.483C194.451 119.483 195.314 119.909 195.954 120.763C196.363 121.385 196.567 122.185 196.567 123.163L196.54 123.563H191.287C191.34 124.327 191.536 124.896 191.874 125.269C192.283 125.785 192.869 126.043 193.634 126.043C194.665 126.043 195.483 125.509 196.087 124.443H196.167ZM195.234 122.763C195.234 122.016 195.091 121.456 194.807 121.083C194.398 120.549 193.891 120.283 193.287 120.283C192.7 120.283 192.229 120.549 191.874 121.083C191.536 121.474 191.34 122.034 191.287 122.763H195.234ZM198.354 126.736C198.461 126.096 198.514 125.447 198.514 124.789V119.083C198.514 118.461 198.461 117.812 198.354 117.136L200.034 116.816C199.892 117.403 199.821 118.052 199.821 118.763V124.789C199.821 125.483 199.892 126.132 200.034 126.736H198.354ZM202.241 126.736C202.348 126.096 202.401 125.447 202.401 124.789V119.083C202.401 118.461 202.348 117.812 202.241 117.136L203.921 116.816C203.779 117.403 203.708 118.052 203.708 118.763V124.789C203.708 125.483 203.779 126.132 203.921 126.736H202.241ZM211.968 124.443V125.696C211.31 126.478 210.412 126.869 209.274 126.869C208.137 126.869 207.248 126.487 206.608 125.723C205.986 124.958 205.674 124.114 205.674 123.189C205.674 122.247 205.977 121.394 206.581 120.629C207.221 119.865 208.083 119.483 209.168 119.483C210.252 119.483 211.114 119.909 211.754 120.763C212.163 121.385 212.368 122.185 212.368 123.163L212.341 123.563H207.088C207.141 124.327 207.337 124.896 207.674 125.269C208.083 125.785 208.67 126.043 209.434 126.043C210.466 126.043 211.283 125.509 211.888 124.443H211.968ZM211.034 122.763C211.034 122.016 210.892 121.456 210.608 121.083C210.199 120.549 209.692 120.283 209.088 120.283C208.501 120.283 208.03 120.549 207.674 121.083C207.337 121.474 207.141 122.034 207.088 122.763H211.034ZM214.155 126.736C214.262 126.096 214.315 125.447 214.315 124.789V121.749C214.315 121.109 214.262 120.461 214.155 119.803L215.835 119.483C215.782 119.661 215.737 119.945 215.702 120.336C216.164 119.767 216.742 119.483 217.435 119.483C217.826 119.483 218.2 119.572 218.555 119.749V121.216H218.502C218.146 120.594 217.702 120.283 217.168 120.283C216.653 120.283 216.235 120.558 215.915 121.109C215.72 121.376 215.622 121.838 215.622 122.496V124.789C215.622 125.483 215.693 126.132 215.835 126.736H214.155ZM219.8 119.803C219.889 119.785 220.013 119.758 220.173 119.723C220.333 119.669 220.52 119.634 220.733 119.616C220.946 119.581 221.195 119.536 221.48 119.483C221.337 120.069 221.266 120.718 221.266 121.429V123.829C221.266 124.469 221.364 124.941 221.56 125.243C221.897 125.776 222.413 126.043 223.106 126.043C223.8 126.043 224.315 125.776 224.653 125.243C224.849 124.941 224.946 124.469 224.946 123.829V121.749C224.946 121.109 224.884 120.461 224.76 119.803L226.44 119.483C226.315 120.069 226.253 120.718 226.253 121.429V125.856C226.253 126.887 225.986 127.723 225.453 128.363C224.777 129.145 223.942 129.536 222.946 129.536C221.969 129.536 221.16 129.296 220.52 128.816V127.136H220.573C220.751 127.581 220.946 127.892 221.16 128.069C221.64 128.496 222.209 128.709 222.866 128.709C223.524 128.709 224.022 128.469 224.36 127.989C224.751 127.492 224.946 126.807 224.946 125.936C224.449 126.558 223.72 126.869 222.76 126.869C221.8 126.869 221.071 126.523 220.573 125.829C220.164 125.261 219.96 124.594 219.96 123.829V121.749C219.96 121.109 219.906 120.461 219.8 119.803ZM238.856 121.083C238.465 120.549 237.967 120.283 237.363 120.283C236.776 120.283 236.287 120.549 235.896 121.083C235.505 121.545 235.309 122.238 235.309 123.163C235.309 124.087 235.505 124.789 235.896 125.269C236.287 125.785 236.776 126.043 237.363 126.043C237.967 126.043 238.465 125.785 238.856 125.269C239.247 124.789 239.443 124.087 239.443 123.163C239.443 122.238 239.247 121.545 238.856 121.083ZM233.843 126.736C233.949 126.043 234.003 125.394 234.003 124.789V119.083C234.003 118.461 233.949 117.812 233.843 117.136L235.523 116.816C235.38 117.403 235.309 118.052 235.309 118.763V120.389C235.807 119.785 236.545 119.483 237.523 119.483C238.5 119.483 239.3 119.865 239.923 120.629C240.545 121.376 240.856 122.238 240.856 123.216C240.856 124.176 240.545 125.003 239.923 125.696C239.3 126.478 238.456 126.869 237.389 126.869C236.536 126.869 235.878 126.585 235.416 126.016C235.434 126.141 235.443 126.265 235.443 126.389C235.46 126.514 235.487 126.629 235.523 126.736H233.843ZM242.651 119.803C242.74 119.785 242.865 119.758 243.025 119.723C243.185 119.669 243.371 119.634 243.585 119.616C243.798 119.581 244.047 119.536 244.331 119.483C244.189 120.069 244.118 120.718 244.118 121.429V123.829C244.118 124.469 244.216 124.941 244.411 125.243C244.749 125.776 245.265 126.043 245.958 126.043C246.651 126.043 247.167 125.776 247.505 125.243C247.7 124.941 247.798 124.469 247.798 123.829V121.749C247.798 121.109 247.736 120.461 247.611 119.803L249.291 119.483C249.167 120.069 249.105 120.718 249.105 121.429V125.856C249.105 126.887 248.838 127.723 248.305 128.363C247.629 129.145 246.793 129.536 245.798 129.536C244.82 129.536 244.011 129.296 243.371 128.816V127.136H243.425C243.602 127.581 243.798 127.892 244.011 128.069C244.491 128.496 245.06 128.709 245.718 128.709C246.376 128.709 246.873 128.469 247.211 127.989C247.602 127.492 247.798 126.807 247.798 125.936C247.3 126.558 246.571 126.869 245.611 126.869C244.651 126.869 243.922 126.523 243.425 125.829C243.016 125.261 242.811 124.594 242.811 123.829V121.749C242.811 121.109 242.758 120.461 242.651 119.803ZM258.374 116.949C258.232 117.589 258.161 118.229 258.161 118.869V125.989C258.161 127.341 257.343 128.016 255.708 128.016V127.963C256.472 127.625 256.854 126.967 256.854 125.989V118.869C256.854 118.247 256.801 117.607 256.694 116.949H258.374ZM266.421 124.443V125.696C265.763 126.478 264.865 126.869 263.728 126.869C262.59 126.869 261.701 126.487 261.061 125.723C260.439 124.958 260.128 124.114 260.128 123.189C260.128 122.247 260.43 121.394 261.034 120.629C261.674 119.865 262.536 119.483 263.621 119.483C264.705 119.483 265.568 119.909 266.208 120.763C266.616 121.385 266.821 122.185 266.821 123.163L266.794 123.563H261.541C261.594 124.327 261.79 124.896 262.128 125.269C262.536 125.785 263.123 126.043 263.888 126.043C264.919 126.043 265.736 125.509 266.341 124.443H266.421ZM265.488 122.763C265.488 122.016 265.345 121.456 265.061 121.083C264.652 120.549 264.145 120.283 263.541 120.283C262.954 120.283 262.483 120.549 262.128 121.083C261.79 121.474 261.594 122.034 261.541 122.763H265.488ZM274.982 124.789C274.982 125.341 275.044 125.989 275.168 126.736H273.488C273.524 126.629 273.542 126.514 273.542 126.389C273.559 126.265 273.577 126.141 273.595 126.016C273.097 126.585 272.439 126.869 271.622 126.869C270.573 126.869 269.728 126.487 269.088 125.723C268.466 124.958 268.155 124.114 268.155 123.189C268.155 122.247 268.457 121.394 269.062 120.629C269.702 119.865 270.511 119.483 271.488 119.483C272.466 119.483 273.159 119.749 273.568 120.283C273.568 120.123 273.542 119.963 273.488 119.803L275.168 119.483C275.044 120.229 274.982 120.878 274.982 121.429V124.789ZM273.115 121.083C272.724 120.549 272.217 120.283 271.595 120.283C270.991 120.283 270.511 120.549 270.155 121.083C269.764 121.545 269.568 122.238 269.568 123.163C269.568 124.087 269.764 124.789 270.155 125.269C270.511 125.785 270.991 126.043 271.595 126.043C272.217 126.043 272.715 125.794 273.088 125.296C273.479 124.798 273.675 124.087 273.675 123.163C273.675 122.238 273.488 121.545 273.115 121.083ZM277.417 126.736C277.524 126.096 277.577 125.447 277.577 124.789V121.749C277.577 121.109 277.524 120.461 277.417 119.803L279.097 119.483C279.044 119.661 278.999 119.945 278.964 120.336C279.426 119.767 280.119 119.483 281.044 119.483C281.968 119.483 282.706 119.821 283.257 120.496C283.666 120.994 283.87 121.661 283.87 122.496V124.789C283.87 125.483 283.932 126.132 284.057 126.736H282.377C282.501 126.096 282.564 125.447 282.564 124.789V122.496C282.564 121.838 282.466 121.376 282.27 121.109C281.95 120.558 281.435 120.283 280.724 120.283C280.012 120.283 279.497 120.558 279.177 121.109C278.981 121.376 278.884 121.838 278.884 122.496V124.789C278.884 125.483 278.955 126.132 279.097 126.736H277.417ZM293.673 126.736C293.442 125.901 293.229 125.278 293.033 124.869L291.327 121.269C291.202 120.932 290.873 120.372 290.34 119.589H292.18C292.358 120.265 292.571 120.887 292.82 121.456L294.473 125.056L296.127 121.456C296.393 120.887 296.607 120.265 296.767 119.589H298.233C298.02 119.856 297.833 120.132 297.673 120.416C297.531 120.701 297.38 120.985 297.22 121.269L295.513 124.869C295.282 125.367 295.06 125.989 294.847 126.736H293.673ZM305.724 124.789C305.724 125.341 305.786 125.989 305.91 126.736H304.23C304.266 126.629 304.284 126.514 304.284 126.389C304.302 126.265 304.319 126.141 304.337 126.016C303.839 126.585 303.182 126.869 302.364 126.869C301.315 126.869 300.47 126.487 299.83 125.723C299.208 124.958 298.897 124.114 298.897 123.189C298.897 122.247 299.199 121.394 299.804 120.629C300.444 119.865 301.253 119.483 302.23 119.483C303.208 119.483 303.902 119.749 304.31 120.283C304.31 120.123 304.284 119.963 304.23 119.803L305.91 119.483C305.786 120.229 305.724 120.878 305.724 121.429V124.789ZM303.857 121.083C303.466 120.549 302.959 120.283 302.337 120.283C301.733 120.283 301.253 120.549 300.897 121.083C300.506 121.545 300.31 122.238 300.31 123.163C300.31 124.087 300.506 124.789 300.897 125.269C301.253 125.785 301.733 126.043 302.337 126.043C302.959 126.043 303.457 125.794 303.83 125.296C304.222 124.798 304.417 124.087 304.417 123.163C304.417 122.238 304.23 121.545 303.857 121.083ZM308.159 126.736C308.266 126.096 308.319 125.447 308.319 124.789V121.749C308.319 121.109 308.266 120.461 308.159 119.803L309.839 119.483C309.786 119.661 309.741 119.945 309.706 120.336C310.168 119.767 310.861 119.483 311.786 119.483C312.71 119.483 313.448 119.821 313.999 120.496C314.408 120.994 314.612 121.661 314.612 122.496V124.789C314.612 125.483 314.675 126.132 314.799 126.736H313.119C313.244 126.096 313.306 125.447 313.306 124.789V122.496C313.306 121.838 313.208 121.376 313.012 121.109C312.692 120.558 312.177 120.283 311.466 120.283C310.755 120.283 310.239 120.558 309.919 121.109C309.724 121.376 309.626 121.838 309.626 122.496V124.789C309.626 125.483 309.697 126.132 309.839 126.736H308.159ZM322.202 126.736C322.309 126.096 322.362 125.447 322.362 124.789V118.869C322.362 118.247 322.309 117.607 322.202 116.949H324.549C325.278 116.949 325.891 117.154 326.389 117.563C326.886 117.954 327.135 118.487 327.135 119.163C327.135 119.821 326.878 120.372 326.362 120.816C326.149 121.029 325.962 121.163 325.802 121.216C326.246 121.269 326.638 121.429 326.975 121.696C327.633 122.229 327.962 122.923 327.962 123.776C327.962 124.629 327.642 125.341 327.002 125.909C326.38 126.461 325.526 126.736 324.442 126.736H322.202ZM323.669 124.789C323.669 124.914 323.695 125.296 323.749 125.936H324.442C325.118 125.936 325.66 125.749 326.069 125.376C326.478 125.003 326.682 124.496 326.682 123.856C326.682 123.216 326.478 122.709 326.069 122.336C325.678 121.909 325.135 121.696 324.442 121.696H323.669V124.789ZM323.749 117.749C323.695 118.336 323.669 118.709 323.669 118.869V120.896H324.575C324.949 120.896 325.269 120.745 325.535 120.443C325.802 120.123 325.935 119.749 325.935 119.323C325.935 118.896 325.829 118.532 325.615 118.229C325.349 117.909 325.002 117.749 324.575 117.749H323.749ZM336.194 124.789C336.194 125.554 336.257 126.203 336.381 126.736H334.701C334.719 126.629 334.728 126.514 334.728 126.389C334.746 126.265 334.772 126.141 334.808 126.016C334.328 126.585 333.626 126.869 332.701 126.869C331.777 126.869 331.048 126.523 330.514 125.829C330.106 125.314 329.901 124.647 329.901 123.829V121.749C329.901 121.109 329.848 120.461 329.741 119.803L331.421 119.483C331.279 120.069 331.208 120.718 331.208 121.429V123.829C331.208 124.469 331.306 124.941 331.501 125.243C331.839 125.776 332.354 126.043 333.048 126.043C334.274 126.043 334.888 125.305 334.888 123.829V121.749C334.888 121.109 334.826 120.461 334.701 119.803L336.381 119.483C336.257 120.069 336.194 120.718 336.194 121.429V124.789ZM338.589 126.736C338.695 126.096 338.749 125.447 338.749 124.789V121.749C338.749 121.109 338.695 120.461 338.589 119.803L340.269 119.483C340.215 119.661 340.171 119.945 340.135 120.336C340.598 119.767 341.175 119.483 341.869 119.483C342.26 119.483 342.633 119.572 342.989 119.749V121.216H342.935C342.58 120.594 342.135 120.283 341.602 120.283C341.087 120.283 340.669 120.558 340.349 121.109C340.153 121.376 340.055 121.838 340.055 122.496V124.789C340.055 125.483 340.127 126.132 340.269 126.736H338.589ZM348.74 121.083C348.349 120.549 347.842 120.283 347.22 120.283C346.616 120.283 346.136 120.549 345.78 121.083C345.389 121.545 345.193 122.238 345.193 123.163C345.193 124.087 345.389 124.789 345.78 125.269C346.136 125.785 346.616 126.043 347.22 126.043C347.842 126.043 348.34 125.794 348.713 125.296C349.104 124.798 349.3 124.087 349.3 123.163C349.3 122.238 349.113 121.545 348.74 121.083ZM350.793 119.483C350.669 120.229 350.607 120.878 350.607 121.429V125.856C350.607 126.923 350.34 127.758 349.807 128.363C349.167 129.145 348.296 129.536 347.193 129.536C346.109 129.536 345.256 129.296 344.633 128.816V127.136H344.687C344.811 127.545 345.007 127.856 345.273 128.069C345.718 128.496 346.313 128.709 347.06 128.709C347.824 128.709 348.384 128.469 348.74 127.989C349.113 127.456 349.3 126.772 349.3 125.936C348.82 126.558 348.091 126.869 347.113 126.869C346.153 126.869 345.353 126.487 344.713 125.723C344.091 124.958 343.78 124.114 343.78 123.189C343.78 122.247 344.082 121.394 344.687 120.629C345.327 119.865 346.136 119.483 347.113 119.483C348.091 119.483 348.784 119.749 349.193 120.283C349.193 120.123 349.167 119.963 349.113 119.803L350.793 119.483Z" fill="black"/>
</svg>
