<svg width="391" height="312" viewBox="0 0 391 312" fill="none" xmlns="http://www.w3.org/2000/svg">
<path d="M64.1959 96.46H62.9898L29.7281 14.1309C27.3583 8.33333 25.4117 4.94792 23.8883 3.97461C22.3648 2.95898 20.7991 2.45117 19.191 2.45117V1.49902H40.773V2.45117C38.8687 2.32422 37.9166 3.06478 37.9166 4.67285C37.9166 5.30762 38.0435 5.9847 38.2975 6.7041L67.3062 78.75L96.1246 6.76758C96.5055 5.79427 96.6959 5.01139 96.6959 4.41895C96.6959 2.98014 95.5745 2.32422 93.3316 2.45117V1.49902H107.36V2.45117C106.387 2.45117 105.35 2.59928 104.25 2.89551C103.192 3.14941 102.091 4.22852 100.949 6.13281C99.8062 8.03711 99.2138 9.05273 99.1715 9.17969L64.1959 96.46ZM137.448 1.49902V2.45117C136.221 2.32422 134.845 2.51465 133.322 3.02246C131.841 3.53027 130.952 4.27083 130.656 5.24414C130.402 6.21745 130.275 8.52376 130.275 12.1631V83.9551C130.275 87.8483 130.423 90.2393 130.719 91.1279C131.058 91.9743 131.671 92.6937 132.56 93.2861C133.491 93.8363 135.12 94.1113 137.448 94.1113V95H112.502V94.1113C115.633 94.1113 117.58 93.5189 118.341 92.334C119.103 91.1068 119.484 88.3561 119.484 84.082V12.9883C119.484 8.54492 119.061 5.64616 118.214 4.29199C117.368 2.89551 115.464 2.2819 112.502 2.45117V1.49902H137.448ZM143.415 95V94.1113C146.335 94.1113 148.218 93.5612 149.064 92.4609C149.953 91.3607 150.397 89.4775 150.397 86.8115V10.2588C150.397 7.55046 150.059 5.60384 149.381 4.41895C148.704 3.19173 146.673 2.53581 143.288 2.45117V1.49902H168.361V2.45117C166.033 2.45117 164.404 2.7474 163.473 3.33984C162.542 3.93229 161.929 4.63053 161.632 5.43457C161.336 6.23861 161.188 8.05827 161.188 10.8936V76.5283C161.188 82.1566 162.542 86.1344 165.251 88.4619C167.959 90.7471 172.593 91.8896 179.152 91.8896H190.578C196.079 91.8896 200.099 90.5355 202.638 87.8271C205.22 85.1188 206.658 80.0195 206.955 72.5293H207.843V95H143.415ZM213.874 95V94.1113C216.794 94.1113 218.677 93.5612 219.523 92.4609C220.412 91.3607 220.856 89.4775 220.856 86.8115V10.2588C220.856 7.55046 220.518 5.60384 219.84 4.41895C219.163 3.19173 217.132 2.53581 213.747 2.45117V1.49902H238.82V2.45117C236.492 2.45117 234.863 2.7474 233.932 3.33984C233.001 3.93229 232.388 4.63053 232.091 5.43457C231.795 6.23861 231.647 8.05827 231.647 10.8936V76.5283C231.647 82.1566 233.001 86.1344 235.71 88.4619C238.418 90.7471 243.052 91.8896 249.611 91.8896H261.037C266.538 91.8896 270.558 90.5355 273.097 87.8271C275.679 85.1188 277.117 80.0195 277.414 72.5293H278.302V95H213.874ZM337.082 51.9629H309.787L295.631 87.3193C294.658 89.8584 294.171 91.4242 294.171 92.0166C294.171 93.4131 295.208 94.1113 297.282 94.1113V95H283.38V94.1113C285.242 94.1113 286.808 93.667 288.078 92.7783C289.347 91.8473 290.744 89.4775 292.267 85.6689L326.164 0.102539H327.751L361.139 82.749C361.139 83.1722 361.986 85.1823 363.678 88.7793C365.413 92.334 368.037 94.1113 371.549 94.1113V95H349.713V94.1113C351.702 94.1113 352.697 93.3285 352.697 91.7627C352.697 90.7048 352.21 89.012 351.237 86.6846C351.068 86.5153 350.92 86.2402 350.793 85.8594C350.708 85.4362 350.644 85.2246 350.602 85.2246L337.082 51.9629ZM310.675 49.3604H335.939L323.307 17.4951L310.675 49.3604Z" fill="black"/>
<mask id="path-2-outside-1_1266_223" maskUnits="userSpaceOnUse" x="60.4307" y="119.68" width="270" height="193" fill="black">
<rect fill="white" x="60.4307" y="119.68" width="270" height="193"/>
<path d="M61.5935 258.549L84.4451 255.502C87.0688 268.451 91.5121 277.803 97.7752 283.559C104.123 289.229 111.825 292.064 120.881 292.064C131.629 292.064 140.685 288.34 148.049 280.893C155.497 273.445 159.22 264.219 159.22 253.217C159.22 242.722 155.793 234.089 148.937 227.318C142.082 220.463 133.364 217.035 122.785 217.035C118.469 217.035 113.094 217.882 106.662 219.574L109.201 199.516C110.724 199.685 111.952 199.77 112.883 199.77C122.616 199.77 131.375 197.23 139.162 192.152C146.948 187.074 150.842 179.245 150.842 168.666C150.842 160.287 148.006 153.347 142.336 147.846C136.665 142.344 129.344 139.594 120.373 139.594C111.486 139.594 104.081 142.387 98.156 147.973C92.2315 153.559 88.4229 161.938 86.7302 173.109L63.8787 169.047C66.6716 153.728 73.0193 141.879 82.9216 133.5C92.824 125.036 105.138 120.805 119.865 120.805C130.021 120.805 139.373 123.005 147.922 127.406C156.47 131.723 162.987 137.647 167.472 145.18C172.043 152.712 174.328 160.71 174.328 169.174C174.328 177.214 172.17 184.535 167.853 191.137C163.537 197.738 157.147 202.986 148.683 206.879C159.686 209.418 168.234 214.708 174.328 222.748C180.422 230.704 183.469 240.691 183.469 252.709C183.469 268.959 177.544 282.755 165.695 294.096C153.846 305.352 138.866 310.98 120.754 310.98C104.419 310.98 90.8351 306.114 80.0017 296.381C69.253 286.648 63.117 274.037 61.5935 258.549ZM209.621 264.643L231.584 262.611C233.446 272.937 237 280.427 242.248 285.082C247.495 289.737 254.224 292.064 262.433 292.064C269.458 292.064 275.594 290.456 280.842 287.24C286.174 284.024 290.532 279.75 293.918 274.418C297.303 269.001 300.138 261.723 302.424 252.582C304.709 243.441 305.851 234.132 305.851 224.652C305.851 223.637 305.809 222.113 305.724 220.082C301.154 227.361 294.891 233.285 286.935 237.855C279.064 242.341 270.516 244.584 261.291 244.584C245.887 244.584 232.853 238.998 222.189 227.826C211.525 216.654 206.193 201.928 206.193 183.646C206.193 164.773 211.737 149.581 222.824 138.07C233.996 126.56 247.961 120.805 264.719 120.805C276.821 120.805 287.866 124.063 297.853 130.58C307.925 137.097 315.542 146.407 320.705 158.51C325.952 170.528 328.576 187.963 328.576 210.814C328.576 234.597 325.995 253.555 320.832 267.689C315.669 281.739 307.967 292.445 297.726 299.809C287.57 307.172 275.636 310.854 261.926 310.854C247.368 310.854 235.477 306.833 226.252 298.793C217.026 290.668 211.483 279.285 209.621 264.643ZM303.185 182.504C303.185 169.385 299.673 158.975 292.648 151.273C285.708 143.572 277.329 139.721 267.511 139.721C257.355 139.721 248.511 143.868 240.978 152.162C233.446 160.456 229.679 171.205 229.679 184.408C229.679 196.257 233.234 205.906 240.344 213.354C247.538 220.717 256.382 224.398 266.877 224.398C277.456 224.398 286.131 220.717 292.902 213.354C299.758 205.906 303.185 195.622 303.185 182.504Z"/>
</mask>
<path d="M61.5935 258.549L84.4451 255.502C87.0688 268.451 91.5121 277.803 97.7752 283.559C104.123 289.229 111.825 292.064 120.881 292.064C131.629 292.064 140.685 288.34 148.049 280.893C155.497 273.445 159.22 264.219 159.22 253.217C159.22 242.722 155.793 234.089 148.937 227.318C142.082 220.463 133.364 217.035 122.785 217.035C118.469 217.035 113.094 217.882 106.662 219.574L109.201 199.516C110.724 199.685 111.952 199.77 112.883 199.77C122.616 199.77 131.375 197.23 139.162 192.152C146.948 187.074 150.842 179.245 150.842 168.666C150.842 160.287 148.006 153.347 142.336 147.846C136.665 142.344 129.344 139.594 120.373 139.594C111.486 139.594 104.081 142.387 98.156 147.973C92.2315 153.559 88.4229 161.938 86.7302 173.109L63.8787 169.047C66.6716 153.728 73.0193 141.879 82.9216 133.5C92.824 125.036 105.138 120.805 119.865 120.805C130.021 120.805 139.373 123.005 147.922 127.406C156.47 131.723 162.987 137.647 167.472 145.18C172.043 152.712 174.328 160.71 174.328 169.174C174.328 177.214 172.17 184.535 167.853 191.137C163.537 197.738 157.147 202.986 148.683 206.879C159.686 209.418 168.234 214.708 174.328 222.748C180.422 230.704 183.469 240.691 183.469 252.709C183.469 268.959 177.544 282.755 165.695 294.096C153.846 305.352 138.866 310.98 120.754 310.98C104.419 310.98 90.8351 306.114 80.0017 296.381C69.253 286.648 63.117 274.037 61.5935 258.549ZM209.621 264.643L231.584 262.611C233.446 272.937 237 280.427 242.248 285.082C247.495 289.737 254.224 292.064 262.433 292.064C269.458 292.064 275.594 290.456 280.842 287.24C286.174 284.024 290.532 279.75 293.918 274.418C297.303 269.001 300.138 261.723 302.424 252.582C304.709 243.441 305.851 234.132 305.851 224.652C305.851 223.637 305.809 222.113 305.724 220.082C301.154 227.361 294.891 233.285 286.935 237.855C279.064 242.341 270.516 244.584 261.291 244.584C245.887 244.584 232.853 238.998 222.189 227.826C211.525 216.654 206.193 201.928 206.193 183.646C206.193 164.773 211.737 149.581 222.824 138.07C233.996 126.56 247.961 120.805 264.719 120.805C276.821 120.805 287.866 124.063 297.853 130.58C307.925 137.097 315.542 146.407 320.705 158.51C325.952 170.528 328.576 187.963 328.576 210.814C328.576 234.597 325.995 253.555 320.832 267.689C315.669 281.739 307.967 292.445 297.726 299.809C287.57 307.172 275.636 310.854 261.926 310.854C247.368 310.854 235.477 306.833 226.252 298.793C217.026 290.668 211.483 279.285 209.621 264.643ZM303.185 182.504C303.185 169.385 299.673 158.975 292.648 151.273C285.708 143.572 277.329 139.721 267.511 139.721C257.355 139.721 248.511 143.868 240.978 152.162C233.446 160.456 229.679 171.205 229.679 184.408C229.679 196.257 233.234 205.906 240.344 213.354C247.538 220.717 256.382 224.398 266.877 224.398C277.456 224.398 286.131 220.717 292.902 213.354C299.758 205.906 303.185 195.622 303.185 182.504Z" fill="black"/>
<path d="M61.5935 258.549L61.4614 257.558L60.5038 257.685L60.5983 258.647L61.5935 258.549ZM84.4451 255.502L85.4252 255.303L85.2395 254.387L84.3129 254.511L84.4451 255.502ZM97.7752 283.559L97.0985 284.295L97.1089 284.304L97.7752 283.559ZM148.049 280.893L147.341 280.185L147.337 280.19L148.049 280.893ZM148.937 227.318L148.23 228.025L148.235 228.03L148.937 227.318ZM106.662 219.574L105.67 219.449L105.484 220.918L106.916 220.541L106.662 219.574ZM109.201 199.516L109.311 198.522L108.333 198.413L108.209 199.39L109.201 199.516ZM86.7302 173.109L86.5552 174.094L87.5653 174.274L87.719 173.259L86.7302 173.109ZM63.8787 169.047L62.8949 168.868L62.7147 169.856L63.7036 170.031L63.8787 169.047ZM82.9216 133.5L83.5676 134.263L83.5714 134.26L82.9216 133.5ZM147.922 127.406L147.464 128.295L147.471 128.299L147.922 127.406ZM167.472 145.18L166.613 145.691L166.617 145.698L167.472 145.18ZM148.683 206.879L148.265 205.97L145.604 207.195L148.459 207.853L148.683 206.879ZM174.328 222.748L173.531 223.352L173.534 223.356L174.328 222.748ZM165.695 294.096L166.384 294.821L166.387 294.818L165.695 294.096ZM80.0017 296.381L79.3305 297.122L79.3334 297.125L80.0017 296.381ZM61.5935 258.549L61.7257 259.54L84.5772 256.493L84.4451 255.502L84.3129 254.511L61.4614 257.558L61.5935 258.549ZM84.4451 255.502L83.465 255.701C86.1089 268.75 90.6156 278.338 97.0985 284.295L97.7752 283.559L98.4518 282.822C92.4087 277.269 88.0286 268.153 85.4252 255.303L84.4451 255.502ZM97.7752 283.559L97.1089 284.304C103.652 290.15 111.596 293.064 120.881 293.064V292.064V291.064C112.053 291.064 104.593 288.309 98.4414 282.813L97.7752 283.559ZM120.881 292.064V293.064C131.889 293.064 141.203 289.239 148.76 281.596L148.049 280.893L147.337 280.19C140.168 287.442 131.37 291.064 120.881 291.064V292.064ZM148.049 280.893L148.756 281.6C156.4 273.955 160.22 264.471 160.22 253.217H159.22H158.22C158.22 263.967 154.593 272.934 147.341 280.185L148.049 280.893ZM159.22 253.217H160.22C160.22 242.481 156.704 233.583 149.64 226.607L148.937 227.318L148.235 228.03C154.882 234.595 158.22 242.963 158.22 253.217H159.22ZM148.937 227.318L149.644 226.611C142.583 219.55 133.603 216.035 122.785 216.035V217.035V218.035C133.126 218.035 141.58 221.376 148.23 228.025L148.937 227.318ZM122.785 217.035V216.035C118.35 216.035 112.883 216.903 106.407 218.607L106.662 219.574L106.916 220.541C113.305 218.86 118.587 218.035 122.785 218.035V217.035ZM106.662 219.574L107.654 219.7L110.193 199.641L109.201 199.516L108.209 199.39L105.67 219.449L106.662 219.574ZM109.201 199.516L109.091 200.51C110.63 200.681 111.899 200.77 112.883 200.77V199.77V198.77C112.004 198.77 110.818 198.689 109.311 198.522L109.201 199.516ZM112.883 199.77V200.77C122.8 200.77 131.751 198.179 139.708 192.99L139.162 192.152L138.616 191.315C131 196.282 122.431 198.77 112.883 198.77V199.77ZM139.162 192.152L139.708 192.99C147.821 187.699 151.842 179.529 151.842 168.666H150.842H149.842C149.842 178.962 146.076 186.449 138.616 191.315L139.162 192.152ZM150.842 168.666H151.842C151.842 160.035 148.909 152.83 143.032 147.128L142.336 147.846L141.639 148.563C147.103 153.864 149.842 160.539 149.842 168.666H150.842ZM142.336 147.846L143.032 147.128C137.149 141.421 129.566 138.594 120.373 138.594V139.594V140.594C129.122 140.594 136.181 143.268 141.639 148.563L142.336 147.846ZM120.373 139.594V138.594C111.256 138.594 103.598 141.467 97.47 147.245L98.156 147.973L98.842 148.7C104.563 143.306 111.716 140.594 120.373 140.594V139.594ZM98.156 147.973L97.47 147.245C91.3301 153.034 87.4549 161.651 85.7415 172.96L86.7302 173.109L87.719 173.259C89.391 162.224 93.1329 154.083 98.842 148.7L98.156 147.973ZM86.7302 173.109L86.9053 172.125L64.0537 168.062L63.8787 169.047L63.7036 170.031L86.5552 174.094L86.7302 173.109ZM63.8787 169.047L64.8625 169.226C67.6225 154.088 73.8758 142.464 83.5676 134.263L82.9216 133.5L82.2757 132.737C72.1628 141.294 65.7208 153.368 62.8949 168.868L63.8787 169.047ZM82.9216 133.5L83.5714 134.26C93.2689 125.972 105.344 121.805 119.865 121.805V120.805V119.805C104.933 119.805 92.379 124.101 82.2719 132.74L82.9216 133.5ZM119.865 120.805V121.805C129.871 121.805 139.065 123.971 147.464 128.295L147.922 127.406L148.379 126.517C139.682 122.039 130.171 119.805 119.865 119.805V120.805ZM147.922 127.406L147.471 128.299C155.866 132.538 162.234 138.337 166.613 145.691L167.472 145.18L168.332 144.668C163.74 136.957 157.074 130.907 148.372 126.514L147.922 127.406ZM167.472 145.18L166.617 145.698C171.097 153.081 173.328 160.901 173.328 169.174H174.328H175.328C175.328 160.52 172.988 152.343 168.327 144.661L167.472 145.18ZM174.328 169.174H173.328C173.328 177.024 171.224 184.154 167.016 190.589L167.853 191.137L168.69 191.684C173.115 184.916 175.328 177.405 175.328 169.174H174.328ZM167.853 191.137L167.016 190.589C162.82 197.007 156.589 202.141 148.265 205.97L148.683 206.879L149.101 207.787C157.704 203.83 164.254 198.47 168.69 191.684L167.853 191.137ZM148.683 206.879L148.459 207.853C159.262 210.346 167.596 215.521 173.531 223.352L174.328 222.748L175.125 222.144C168.873 213.895 160.11 208.49 148.908 205.905L148.683 206.879ZM174.328 222.748L173.534 223.356C179.469 231.105 182.469 240.865 182.469 252.709H183.469H184.469C184.469 240.516 181.374 230.303 175.122 222.14L174.328 222.748ZM183.469 252.709H182.469C182.469 268.683 176.658 282.219 165.004 293.373L165.695 294.096L166.387 294.818C178.43 283.29 184.469 269.235 184.469 252.709H183.469ZM165.695 294.096L165.006 293.371C153.364 304.431 138.639 309.98 120.754 309.98V310.98V311.98C139.092 311.98 154.328 306.274 166.384 294.821L165.695 294.096ZM120.754 310.98V309.98C104.634 309.98 91.2972 305.185 80.67 295.637L80.0017 296.381L79.3334 297.125C90.3729 307.043 104.205 311.98 120.754 311.98V310.98ZM80.0017 296.381L80.6729 295.64C70.1226 286.086 64.0898 273.712 62.5887 258.451L61.5935 258.549L60.5983 258.647C62.1441 274.363 68.3834 287.209 79.3305 297.122L80.0017 296.381ZM209.621 264.643L209.529 263.647L208.498 263.742L208.629 264.769L209.621 264.643ZM231.584 262.611L232.568 262.434L232.405 261.531L231.492 261.616L231.584 262.611ZM280.842 287.24L280.325 286.384L280.319 286.388L280.842 287.24ZM293.918 274.418L294.762 274.954L294.766 274.948L293.918 274.418ZM305.724 220.082L306.724 220.04L306.589 216.824L304.877 219.55L305.724 220.082ZM286.935 237.855L287.43 238.724L287.433 238.723L286.935 237.855ZM222.824 138.07L222.106 137.374L222.104 137.377L222.824 138.07ZM297.853 130.58L297.307 131.418L297.31 131.42L297.853 130.58ZM320.705 158.51L319.785 158.902L319.788 158.91L320.705 158.51ZM320.832 267.689L321.77 268.034L321.771 268.033L320.832 267.689ZM297.726 299.809L297.143 298.997L297.139 298.999L297.726 299.809ZM226.252 298.793L225.591 299.543L225.595 299.547L226.252 298.793ZM292.648 151.273L291.905 151.943L291.909 151.947L292.648 151.273ZM240.344 213.354L239.62 214.044L239.628 214.052L240.344 213.354ZM292.902 213.354L292.166 212.676L292.166 212.677L292.902 213.354ZM209.621 264.643L209.713 265.638L231.676 263.607L231.584 262.611L231.492 261.616L209.529 263.647L209.621 264.643ZM231.584 262.611L230.6 262.789C232.483 273.23 236.104 280.968 241.584 285.83L242.248 285.082L242.911 284.334C237.897 279.886 234.409 272.643 232.568 262.434L231.584 262.611ZM242.248 285.082L241.584 285.83C247.045 290.674 254.023 293.064 262.433 293.064V292.064V291.064C254.424 291.064 247.945 288.8 242.911 284.334L242.248 285.082ZM262.433 292.064V293.064C269.616 293.064 275.938 291.418 281.364 288.093L280.842 287.24L280.319 286.388C275.25 289.494 269.3 291.064 262.433 291.064V292.064ZM280.842 287.24L281.358 288.097C286.825 284.799 291.295 280.415 294.762 274.954L293.918 274.418L293.074 273.882C289.77 279.085 285.523 283.249 280.325 286.384L280.842 287.24ZM293.918 274.418L294.766 274.948C298.226 269.411 301.094 262.023 303.394 252.825L302.424 252.582L301.453 252.339C299.183 261.422 296.38 268.592 293.07 273.888L293.918 274.418ZM302.424 252.582L303.394 252.825C305.699 243.604 306.851 234.213 306.851 224.652H305.851H304.851C304.851 234.05 303.719 243.279 301.453 252.339L302.424 252.582ZM305.851 224.652H306.851C306.851 223.615 306.808 222.075 306.724 220.04L305.724 220.082L304.725 220.124C304.81 222.152 304.851 223.658 304.851 224.652H305.851ZM305.724 220.082L304.877 219.55C300.4 226.681 294.261 232.494 286.437 236.988L286.935 237.855L287.433 238.723C295.521 234.076 301.908 228.04 306.571 220.614L305.724 220.082ZM286.935 237.855L286.44 236.987C278.723 241.385 270.346 243.584 261.291 243.584V244.584V245.584C270.686 245.584 279.406 243.298 287.43 238.724L286.935 237.855ZM261.291 244.584V243.584C246.161 243.584 233.389 238.11 222.913 227.136L222.189 227.826L221.466 228.517C232.318 239.886 245.613 245.584 261.291 245.584V244.584ZM222.189 227.826L222.913 227.136C212.458 216.183 207.193 201.721 207.193 183.646H206.193H205.193C205.193 202.134 210.592 217.125 221.466 228.517L222.189 227.826ZM206.193 183.646H207.193C207.193 164.981 212.668 150.055 223.544 138.764L222.824 138.07L222.104 137.377C210.805 149.107 205.193 164.564 205.193 183.646H206.193ZM222.824 138.07L223.542 138.767C234.516 127.46 248.218 121.805 264.719 121.805V120.805V119.805C247.704 119.805 233.476 125.66 222.106 137.374L222.824 138.07ZM264.719 120.805V121.805C276.63 121.805 287.485 125.008 297.307 131.418L297.853 130.58L298.4 129.743C288.248 123.118 277.012 119.805 264.719 119.805V120.805ZM297.853 130.58L297.31 131.42C307.198 137.818 314.693 146.964 319.785 158.902L320.705 158.51L321.625 158.117C316.392 145.85 308.652 136.376 298.397 129.741L297.853 130.58ZM320.705 158.51L319.788 158.91C324.954 170.741 327.576 188.013 327.576 210.814H328.576H329.576C329.576 187.912 326.95 170.315 321.621 158.11L320.705 158.51ZM328.576 210.814H327.576C327.576 234.54 324.999 253.367 319.893 267.346L320.832 267.689L321.771 268.033C326.99 253.744 329.576 234.654 329.576 210.814H328.576ZM320.832 267.689L319.893 267.345C314.786 281.242 307.193 291.77 297.143 298.997L297.726 299.809L298.31 300.621C308.742 293.12 316.552 282.236 321.77 268.034L320.832 267.689ZM297.726 299.809L297.139 298.999C287.17 306.227 275.446 309.854 261.926 309.854V310.854V311.854C275.827 311.854 287.97 308.117 298.313 300.618L297.726 299.809ZM261.926 310.854V309.854C247.562 309.854 235.919 305.892 226.909 298.039L226.252 298.793L225.595 299.547C235.035 307.775 247.175 311.854 261.926 311.854V310.854ZM226.252 298.793L226.913 298.043C217.905 290.109 212.451 278.968 210.613 264.516L209.621 264.643L208.629 264.769C210.515 279.601 216.148 291.227 225.591 299.543L226.252 298.793ZM303.185 182.504H304.185C304.185 169.203 300.62 158.53 293.387 150.6L292.648 151.273L291.909 151.947C298.726 159.421 302.185 169.568 302.185 182.504H303.185ZM292.648 151.273L293.391 150.604C286.273 142.705 277.63 138.721 267.511 138.721V139.721V140.721C277.028 140.721 285.143 144.438 291.905 151.943L292.648 151.273ZM267.511 139.721V138.721C257.042 138.721 247.938 143.011 240.238 151.49L240.978 152.162L241.719 152.834C249.083 144.725 257.668 140.721 267.511 140.721V139.721ZM240.978 152.162L240.238 151.49C232.509 160 228.679 171.004 228.679 184.408H229.679H230.679C230.679 171.407 234.382 160.913 241.719 152.834L240.978 152.162ZM229.679 184.408H228.679C228.679 196.473 232.306 206.382 239.62 214.044L240.344 213.354L241.067 212.663C234.162 205.429 230.679 196.042 230.679 184.408H229.679ZM240.344 213.354L239.628 214.052C247.014 221.612 256.119 225.398 266.877 225.398V224.398V223.398C256.645 223.398 248.061 219.821 241.059 212.655L240.344 213.354ZM266.877 224.398V225.398C277.718 225.398 286.666 221.613 293.638 214.03L292.902 213.354L292.166 212.677C285.596 219.821 277.195 223.398 266.877 223.398V224.398ZM292.902 213.354L293.638 214.031C300.709 206.349 304.185 195.797 304.185 182.504H303.185H302.185C302.185 195.448 298.806 205.462 292.166 212.676L292.902 213.354Z" fill="black" mask="url(#path-2-outside-1_1266_223)"/>
<path d="M230.944 176.041C235.502 177.207 233.594 187.171 230.944 186.535C212.963 182.219 202.286 206.292 189.794 193.059C209.379 195.811 212.132 176.041 230.944 176.041Z" fill="#846E36"/>
<path d="M312.465 142.569C314.844 140.633 309.916 137.363 308.718 138.514C285.735 153.292 243.901 165.538 223.03 136.613C220.068 134.775 215.925 140.208 218.043 142.388C236.391 164.269 275.898 164.091 312.465 142.569Z" fill="#846E36"/>
<path d="M230.944 176.041C235.502 177.207 233.594 187.171 230.944 186.535C212.963 182.219 202.286 206.292 189.794 193.059C209.379 195.811 212.132 176.041 230.944 176.041Z" stroke="#846E36"/>
<path d="M312.465 142.569C314.844 140.633 309.916 137.363 308.718 138.514C285.735 153.292 243.901 165.538 223.03 136.613C220.068 134.775 215.925 140.208 218.043 142.388C236.391 164.269 275.898 164.091 312.465 142.569Z" stroke="#846E36"/>
<path d="M168.214 293.681C209.39 277.823 222.437 279.453 235.58 275.712C238.424 274.903 238.299 271.152 234.945 271.684C210.483 275.569 194.558 278.927 174.509 286.745C172.787 290.277 171.736 291.652 168.214 293.681Z" fill="#846E36" stroke="#846E36"/>
<path d="M168.893 292.967C170.941 293.465 173.997 290.509 174.399 286.475C175.652 273.892 156.149 257.888 157.225 246.85C157.059 245.446 156.332 242.005 155.307 239.557C147.989 258.575 179.841 279.06 168.893 292.967Z" fill="#846E36" stroke="#846E36"/>
<path d="M225.511 299.999C225.021 301.068 224.36 302.265 223.959 302.903C224.801 303.407 224.893 303.371 225.235 303.524C226.792 304.079 227.558 303.348 228.978 302.346C265.794 267.365 288.191 273.046 291.871 274.768C293.868 271.844 293.944 271.379 294.96 269.434C269.419 265.365 243.97 283.361 225.511 299.999Z" fill="#846E36"/>
<path d="M225.511 299.999C223.65 298.414 223.908 298.536 222.682 297.418C221.501 299.876 222.388 301.779 223.959 302.903C224.36 302.265 225.021 301.068 225.511 299.999Z" fill="#846E36"/>
<path d="M225.511 299.999C243.97 283.361 269.419 265.365 294.96 269.434C293.944 271.379 293.868 271.844 291.871 274.768C288.191 273.046 265.794 267.365 228.978 302.346C227.558 303.348 226.792 304.079 225.235 303.524M225.511 299.999C223.65 298.414 223.908 298.536 222.682 297.418C221.501 299.876 222.388 301.779 223.959 302.903M225.511 299.999C225.021 301.068 224.36 302.265 223.959 302.903M225.235 303.524L223.959 302.903M225.235 303.524C224.893 303.371 224.801 303.407 223.959 302.903" stroke="#846E36"/>
<path d="M179.461 228.15C183.837 228.15 182.201 224.382 178.356 223.729C119.436 213.725 136.939 173.1 149.233 165.756C148.963 163.487 148.91 162.548 148.014 159.644C134.827 170.421 107.025 214.102 179.461 228.15Z" fill="#846E36"/>
<path d="M171.693 150.099C170.757 148.174 169.527 145.74 168.413 143.869C178.901 133.604 162.168 123.994 164.787 107.541C165.834 128.155 183.266 122.3 171.693 150.099Z" fill="#846E36"/>
<path d="M179.461 228.15C183.837 228.15 182.201 224.382 178.356 223.729C119.436 213.725 136.939 173.1 149.233 165.756C148.963 163.487 148.91 162.548 148.014 159.644C134.827 170.421 107.025 214.102 179.461 228.15Z" stroke="#846E36"/>
<path d="M171.693 150.099C170.757 148.174 169.527 145.74 168.413 143.869C178.901 133.604 162.168 123.994 164.787 107.541C165.834 128.155 183.266 122.3 171.693 150.099Z" stroke="#846E36"/>
<path d="M324.764 258.624C329.637 259.904 326.867 253.769 325.858 253.203C305.482 241.772 287.488 190.091 301.527 177.86C301.329 174.621 300.742 171.034 300.213 169.042C278.478 190.611 301.382 246.437 324.764 258.624Z" fill="#846E36" stroke="#846E36"/>
<path d="M176.052 136.658C178.338 138.666 179.101 134.283 181.858 134.108C178.916 131.975 176.332 133.729 176.052 136.658Z" fill="#846E36" stroke="#846E36"/>
<path d="M211.658 275.071C207.718 271.437 213.956 269.295 214.084 264.851C218.479 268.9 216.463 272.735 211.658 275.071Z" fill="#846E36" stroke="#846E36"/>
<path d="M246.857 280.525C242.321 277.668 246.857 274.697 247.382 270.033C252.722 274.965 251.156 277.353 246.857 280.525Z" fill="#846E36" stroke="#846E36"/>
<path d="M246.833 280.192C246.986 281.721 247 282.47 246.833 283.523" stroke="#846E36"/>
<path d="M129.129 193.454C125.557 197.45 123.318 191.246 118.872 191.187C122.853 186.731 126.719 188.686 129.129 193.454Z" fill="#846E36" stroke="#846E36"/>
<path d="M128.745 193.431C130.194 193.303 130.91 193.416 132.008 193.964" stroke="#846E36"/>
<path d="M150.227 217.82C146.688 222.03 139.969 219.868 137.242 222.03C138.429 215.244 142.991 218.084 150.227 217.82Z" fill="#846E36" stroke="#846E36"/>
<path d="M279.101 156.289C284.495 161.399 273.947 163.745 275.539 168.026C270.248 163.613 276.791 158.15 279.101 156.289Z" fill="#846E36" stroke="#846E36"/>
<path d="M292.702 216.353C289.129 220.349 283.157 214.997 282.445 214.086C285.775 215.057 293.748 211.36 292.702 216.353Z" fill="#846E36" stroke="#846E36"/>
<path d="M292.528 216.27C293.978 216.399 294.575 216.833 295.806 217.414" stroke="#846E36"/>
<path d="M156.139 254.242C150.395 241.02 145.969 250.227 148.728 250.016C144.629 250.33 150.242 237.931 156.139 254.242Z" fill="#846E36"/>
<path d="M148.728 250.016C145.969 250.227 150.395 241.02 156.139 254.242C150.242 237.931 144.629 250.33 148.728 250.016ZM148.728 250.016L148.933 249.958" stroke="#846E36" stroke-linecap="round"/>
<path d="M199.151 282.151C213.603 282.336 206.992 290.425 206.055 287.647C207.447 291.774 216.492 281.22 199.151 282.151Z" fill="#846E36"/>
<path d="M206.055 287.647C206.992 290.425 213.603 282.336 199.151 282.151C216.492 281.22 207.447 291.774 206.055 287.647ZM206.055 287.647L206.023 287.423" stroke="#846E36" stroke-linecap="round"/>
<path d="M166.092 277.088C162.865 281.31 156.738 278.351 152.716 277.977C156.036 272.131 162.725 271.956 166.092 277.088Z" fill="#846E36" stroke="#846E36"/>
<path d="M165.927 277.262C167.298 276.834 168.067 276.837 169.438 277.262" stroke="#846E36"/>
<path d="M166.751 263.082C166.059 263.481 165.603 264.192 165.724 265.784" stroke="#846E36"/>
<path d="M166.629 262.953C171.831 265.262 170.365 257.026 174.058 254.305C166.177 253.69 165.639 257.694 166.629 262.953Z" fill="#846E36" stroke="#846E36"/>
<path d="M308.808 137.873C312.436 131.929 310.874 129.534 306.691 126.67C303.196 134.011 305.042 136.246 308.808 137.873Z" fill="#846E36" stroke="#846E36"/>
<path d="M273.788 274.251C274.969 284.925 277.665 280.118 280.353 283.573C282.88 276.083 279.13 274.58 273.788 274.251Z" fill="#846E36" stroke="#846E36"/>
<path d="M242.047 292.004C241.898 297.693 248.952 293.195 252.876 295.571C250.438 288.052 246.223 291.06 242.047 292.004Z" fill="#846E36" stroke="#846E36"/>
<path d="M143.979 169.747C143.57 174.84 151.155 170.95 154.649 173.922C152.761 167.965 146.886 168.087 143.979 169.747Z" fill="#846E36" stroke="#846E36"/>
<path d="M237.217 145.939C236.044 147.983 236.246 148.677 237.217 149.593" stroke="#846E36"/>
<path d="M237.113 146.042C241.968 144.45 240.594 137.743 236.837 134.588C237.408 138.203 234.458 144.004 237.113 146.042Z" fill="#846E36" stroke="#846E36"/>
<path d="M319.908 248.949C324.982 248.344 319.669 241.677 321.893 237.665C316.426 240.693 317.707 246.428 319.908 248.949Z" fill="#846E36" stroke="#846E36"/>
<path d="M298.599 185.837C298.189 190.931 305.774 187.04 309.268 190.013C307.38 184.055 301.505 184.177 298.599 185.837Z" fill="#846E36" stroke="#846E36"/>
<path d="M299.246 186.03C298.232 185.825 297.85 185.87 297.264 186.03" stroke="#846E36"/>
</svg>
