<svg width="69" height="55" viewBox="0 0 69 55" fill="none" xmlns="http://www.w3.org/2000/svg">
<path d="M38.3375 48.7639C26.5035 48.7639 18.9499 45.8297 14.166 41.8285C15.1731 41.5618 16.1803 41.0283 17.1874 40.228C19.2017 38.0941 19.7053 35.1599 19.4535 32.4925C19.4535 31.959 19.2017 31.4255 19.2017 30.892C19.7053 30.892 20.2088 31.1587 20.7124 31.1587C22.9785 31.1587 24.9928 30.0918 26.5035 28.4913C28.0142 31.4255 31.0357 33.5594 34.5607 33.5594C38.841 33.5594 42.6178 30.3585 43.3732 25.8239C43.3732 25.2904 43.625 24.4901 43.625 23.9567C43.625 22.8897 43.3732 21.8227 43.1214 20.7557C41.8625 17.0213 38.5893 14.3539 34.5607 14.3539C32.2946 14.3539 30.0285 15.1541 28.5178 16.7546C28.0142 17.2881 27.5106 17.8215 27.0071 18.6218C26.5035 18.0883 25.9999 17.2881 25.4964 17.0213C24.2374 15.9543 22.4749 15.1541 20.7124 15.1541C16.9356 15.1541 13.6624 18.0883 13.1588 22.0894C12.4035 21.556 11.8999 21.0225 11.1445 20.7557C11.6481 18.6218 12.907 16.4878 14.4178 15.1541V5.01783C14.4178 4.21759 15.1731 3.95085 15.4249 4.75108V5.01783C16.432 7.41852 17.691 10.6195 20.4606 13.0201C22.7267 13.0201 24.9928 13.8204 26.5035 15.4208C28.5178 13.5536 31.2874 12.2199 34.0571 12.2199C37.0785 12.2199 39.8482 13.5536 41.8625 15.4208C51.4304 12.4867 56.4661 5.81806 58.984 0.483177C59.2357 -0.317055 60.7465 -0.0503112 60.7465 0.749921C62.2572 16.4878 61.5018 32.7592 54.4518 41.8285C51.9339 39.9613 49.4161 38.6276 47.6536 37.5606C47.4018 37.5606 47.4018 37.2939 47.15 37.2939C47.15 37.0271 47.15 36.7604 47.15 36.7604C46.6464 35.1599 45.3875 33.5594 43.625 33.026C43.1214 32.7592 42.366 33.0259 42.366 33.8262C42.1143 34.3597 42.366 35.1599 43.1214 35.1599H43.3732C39.0928 38.0941 34.0571 39.4278 28.7696 39.1611H27.5106C27.0071 39.1611 26.5035 39.6945 26.2517 40.228C26.2517 40.7615 26.7553 41.295 27.2589 41.5618H28.5178C33.0499 41.8285 37.8339 41.0283 41.8625 38.8943C42.1143 39.1611 42.366 39.6946 42.6178 39.9613C43.1214 40.4948 43.8768 41.295 44.8839 42.0952C46.1428 43.429 47.9053 44.7627 49.9196 46.3632C46.8982 47.6969 43.1214 48.7639 38.3375 48.7639Z" fill="#030708"/>
<path d="M51.43 44.7627C48.4086 42.362 45.8907 40.228 44.38 38.8943C44.1282 38.6276 44.1282 38.6276 43.8765 38.3608C43.6247 37.8274 43.3729 37.5606 43.1211 37.2939C43.1211 37.0271 43.1211 37.0271 43.1211 37.0271C43.1211 37.0271 43.3729 36.7604 43.6247 37.0271C43.8765 37.0271 44.1282 37.2939 44.38 37.2939C44.6318 37.2939 44.6318 37.5606 44.8836 37.5606C46.6461 38.3608 49.9193 40.2281 53.1926 42.6287C53.6961 42.8955 54.1997 43.429 54.7033 43.6957C57.4729 45.5629 59.739 47.6969 61.5015 49.0306C64.5229 45.5629 68.2997 54.899 68.2997 54.899C68.2997 54.899 58.7319 55.9659 60.4944 51.1646C58.4801 50.0976 55.9622 48.2304 53.1926 46.3632C52.689 45.8297 51.9336 45.2962 51.43 44.7627Z" fill="#030708"/>
<path fill-rule="evenodd" clip-rule="evenodd" d="M16.1806 37.8273C15.9288 38.0941 15.677 38.3608 15.4253 38.6276C12.6556 41.295 7.36809 39.9613 3.59129 35.4266C-0.185505 30.892 -1.19265 25.2904 1.577 22.6229C3.84308 20.7557 7.36809 21.0225 10.6413 23.1564C11.3967 23.6899 12.4038 24.4901 13.1592 25.2904C13.411 25.5571 13.6627 25.8239 13.9145 26.0906C14.9217 27.4243 15.9288 28.758 16.4324 30.0918C17.1878 31.959 17.4395 33.8262 17.4395 35.4266C17.1878 36.2269 16.936 37.0271 16.1806 37.8273ZM7.87166 26.6241C7.87166 28.758 6.61273 30.3585 4.85022 30.3585C3.08772 30.3585 1.82879 28.758 1.82879 26.6241C1.82879 24.4901 3.08772 22.8897 4.85022 22.8897C6.61273 22.8897 7.87166 24.4901 7.87166 26.6241Z" fill="#030708"/>
<path d="M22.2237 28.2246C24.7416 28.2246 26.5041 26.0906 26.5041 23.6899C26.5041 21.0225 24.4898 19.1553 22.2237 19.1553C21.9719 19.1553 21.4684 19.1553 21.2166 19.1553C22.2237 19.422 22.9791 20.489 22.9791 21.8227C22.9791 23.4232 21.7202 24.4902 20.4612 24.4902C19.4541 24.4902 18.4469 23.6899 17.9434 22.6229C17.9434 22.8897 17.9434 23.4232 17.9434 23.6899C17.9434 26.0906 19.9577 28.2246 22.2237 28.2246Z" fill="#030708"/>
<path d="M36.0717 30.3585C38.8413 30.3585 41.1074 27.9578 41.1074 25.0236C41.1074 22.0894 38.8413 19.6887 36.0717 19.6887C35.8199 19.6887 35.5681 19.6887 35.3163 19.6887C36.5753 19.9555 37.5824 21.2892 37.5824 22.6229C37.5824 24.2234 36.3235 25.8238 34.561 25.8238C33.0503 25.8238 31.5395 24.4901 31.5395 22.6229C31.5395 22.3562 31.5395 22.3562 31.5395 22.0894C31.036 22.8896 30.7842 23.9566 30.7842 25.0236C31.036 27.9578 33.302 30.3585 36.0717 30.3585Z" fill="#030708"/>
</svg>
